<svg width="147" height="153" viewBox="0 0 147 153" fill="none" xmlns="http://www.w3.org/2000/svg">
<g clip-path="url(#clip0_47_1100)">
<path d="M0 91.1114C0.0959271 90.9439 0.167094 90.7632 0.211271 90.5752C0.395201 88.223 0.919651 85.9308 1.36705 83.6236C1.81445 81.3163 2.36127 79.0216 2.65456 76.6969C2.79872 75.5795 2.5452 74.3947 2.36872 73.2548C2.0282 71.0573 1.58826 68.8748 1.24277 66.6773C0.897281 64.4799 0.497109 62.2799 0.303236 60.0625C-0.111849 55.2834 0.800345 50.861 3.94704 47.0373C5.85097 44.7226 8.02333 42.6922 10.1609 40.6219C11.5329 39.3 12.9298 38.0029 14.3118 36.6909C16.3264 34.7772 17.9669 32.5024 19.1486 29.9838C20.369 27.4047 21.5994 24.8306 22.8769 22.2864C23.7834 20.4235 24.8795 18.6598 26.1479 17.0234C28.2506 14.3753 31.1379 12.4666 34.3925 11.5734C36.8117 10.9048 39.2883 10.4663 41.7894 10.2639C44.6578 10.0145 47.5062 9.63782 50.372 9.26617C51.6968 9.09407 52.8576 8.45802 54.0307 7.82696C57.078 6.17325 60.1153 4.49957 63.2272 2.94812C65.6929 1.70098 68.253 0.665845 71.007 0.229343C71.6557 0.127077 72.3144 0.0846741 72.9731 0.0422711C76.2746 -0.154397 79.5711 0.505319 82.5449 1.95789C85.9128 3.54426 89.1067 5.4499 92.333 7.2857C93.4067 7.8993 94.4755 8.5553 95.6188 9.00427C96.8074 9.45898 98.0368 9.7981 99.29 10.017C102.24 10.5607 105.201 11.0371 108.166 11.4936C110.402 11.8208 112.61 12.3212 114.77 12.9902C118.533 14.1849 121.319 16.5645 123.343 19.9143C124.971 22.6131 126.191 25.5115 127.506 28.365C128.233 29.9414 128.968 31.5144 129.711 33.0842C130.49 34.6446 131.538 36.0541 132.808 37.2472C135.348 39.7415 137.888 42.2582 140.376 44.8124C142.051 46.5334 143.652 48.3293 144.83 50.4495C146.515 53.4116 147.187 56.8456 146.744 60.2271C146.247 64.415 145.27 68.5032 144.46 72.6237C143.963 75.1554 144.196 77.6248 144.761 80.1066C145.442 83.1172 146.063 86.1478 146.597 89.1883C147.029 91.6033 147.112 94.0678 146.846 96.5066C146.493 99.622 145.442 102.528 143.398 105C141.435 107.372 139.193 109.452 136.936 111.532C135.052 113.278 133.034 114.887 131.468 116.942C131.005 117.581 130.603 118.263 130.267 118.978C128.595 122.298 126.984 125.657 125.271 128.955C123.865 131.681 122.269 134.31 120.216 136.6C118.705 138.316 116.812 139.65 114.69 140.493C112.683 141.228 110.598 141.73 108.477 141.99C106.24 142.312 104.003 142.641 101.766 142.95C100.339 143.145 98.9097 143.321 97.478 143.479C95.6661 143.681 94.1151 144.492 92.5989 145.447C90.0487 147.056 87.5284 148.71 84.8216 150.057C82.5406 151.208 80.1249 152.067 77.631 152.616C76.6633 152.818 75.6788 152.928 74.6906 152.945C72.6276 152.992 70.5571 153.057 68.5065 152.696C66.7241 152.389 64.9759 151.907 63.2869 151.259C59.6679 149.907 56.4218 147.874 53.2552 145.667C52.3729 145.053 51.4781 144.457 50.6181 143.813C49.7413 143.187 48.7091 142.816 47.6354 142.741C45.0554 142.476 42.4655 142.279 39.8905 141.968C37.3155 141.656 34.6708 141.314 32.1853 140.329C28.8226 138.994 25.9204 136.705 23.8339 133.741C21.9946 131.185 20.63 128.354 19.3872 125.463C18.5074 123.415 17.6474 121.352 16.7302 119.322C16.233 118.182 15.4649 117.182 14.4932 116.409C13.4542 115.593 12.5048 114.648 11.5478 113.742C9.18657 111.537 6.75571 109.41 4.68773 106.905C2.37618 104.109 0.770518 100.999 0.213757 97.3821C0.198843 97.2798 0.0820229 97.195 0.0124277 97.1002L0 91.1114ZM144.184 57.1192C144.184 56.7875 144.157 56.4507 144.184 56.1215C144.292 54.8275 143.912 53.54 143.118 52.5147C142.73 51.9785 142.404 51.3923 141.977 50.8909C140.388 49.0352 138.8 47.1769 137.152 45.3761C135.892 44.0017 134.535 42.7147 133.228 41.3852C130.573 38.6814 128.257 35.7182 126.517 32.3384C125.57 30.5001 124.682 28.6344 123.783 26.7786C122.483 24.1272 121.262 21.4508 119.555 19.0463C118.729 17.8939 117.842 16.8014 116.42 16.3574C115.284 15.9983 114.166 15.5443 113.005 15.2999C108.864 14.4269 104.713 13.6087 100.56 12.8056C97.9229 12.2942 95.3405 11.5784 92.932 10.4061C90.2923 9.12899 87.7397 7.70973 85.1497 6.31791C82.4952 4.8837 79.7909 3.57419 76.8853 2.72613C75.4273 2.2634 73.8764 2.1776 72.3765 2.4767C69.965 3.01215 67.6231 3.82483 65.3971 4.89866C63.0458 6.00613 60.7069 7.14353 58.4376 8.41312C54.6263 10.5627 50.4366 11.9517 46.0994 12.5038C44.0563 12.7532 42.0181 13.0425 39.9725 13.2521C37.7681 13.5025 35.5909 13.9533 33.4678 14.599C31.9119 15.0604 30.4429 15.7339 29.4164 17.0933C28.7403 17.9812 28.0071 18.8393 27.4653 19.8145C26.0535 22.3413 24.6765 24.8904 23.3865 27.4795C21.1271 32.0116 18.3731 36.1671 14.7989 39.7415C12.5122 42.0337 10.2181 44.316 7.94877 46.6207C6.59792 48.0235 5.35178 49.5241 4.22045 51.1104C2.87826 52.9462 2.92051 55.0664 2.82109 57.1616C2.82645 57.8985 2.88042 58.6343 2.98265 59.3641C3.08207 60.4765 3.1467 61.594 3.3008 62.6989C3.58167 64.7393 3.93213 66.7721 4.22791 68.8125C4.43421 70.2442 4.53612 71.6909 4.7971 73.1101C5.10033 74.7663 4.99097 76.4275 4.90646 78.0738C4.82444 79.6302 4.47646 81.1767 4.22791 82.7231C3.80371 85.3704 3.37123 88.0152 2.93046 90.6575C2.63219 92.4584 2.40601 94.2742 2.51537 96.095C2.60733 97.6141 2.70924 99.163 3.49467 100.535C3.95626 101.368 4.46154 102.175 5.00837 102.954C7.37212 106.197 10.2802 108.911 13.2305 111.58C15.6117 113.737 17.7716 116.069 19.2953 118.918C20.3516 120.878 21.1967 122.954 22.1437 124.974C23.5629 128.012 25.0046 131.033 27.0502 133.724C28.4968 135.632 30.2665 137.019 32.5681 137.727C35.1356 138.52 37.7877 138.88 40.4323 139.224C42.5525 139.503 44.6975 139.638 46.7978 140.022C49.2429 140.431 51.577 141.344 53.6529 142.703C54.9578 143.579 56.2777 144.432 57.6025 145.275C60.779 147.3 64.0823 149.044 67.741 150.054C69.9668 150.706 72.2987 150.911 74.6036 150.658C77.017 150.363 79.3261 149.593 81.5631 148.605C84.2152 147.435 86.6933 145.946 89.1465 144.422C91.5216 142.922 94.1239 141.819 96.8517 141.157C100.138 140.374 103.498 140.04 106.824 139.501C109.095 139.134 111.367 138.752 113.579 138.111C115.046 137.68 116.475 137.179 117.504 135.901C118.844 134.27 120.07 132.547 121.173 130.746C123.109 127.503 124.866 124.186 126.507 120.794C127.921 117.791 129.793 115.029 132.054 112.605C133.481 111.108 135 109.684 136.466 108.217C137.933 106.751 139.414 105.309 140.821 103.795C141.622 102.899 142.369 101.956 143.058 100.971C144.052 99.612 144.301 98.0132 144.393 96.3919C144.479 94.3631 144.333 92.3311 143.958 90.3357C143.449 87.4955 142.946 84.6545 142.449 81.8127C142.265 80.7576 141.979 79.6976 141.967 78.635C141.939 76.3178 141.738 73.9931 142.143 71.6784C142.628 68.9172 143.003 66.1361 143.49 63.3724C143.848 61.3046 144.229 59.2344 144.184 57.1192Z" fill="black"/>
<path d="M144.184 57.1197C144.229 59.2423 143.848 61.3126 143.483 63.3903C142.986 66.154 142.621 68.9351 142.136 71.6963C141.731 74.011 141.932 76.3357 141.959 78.6529C141.972 79.7155 142.258 80.7755 142.442 81.8306C142.939 84.6741 143.442 87.5151 143.95 90.3536C144.326 92.349 144.472 94.381 144.385 96.4098C144.301 98.0311 144.032 99.6299 143.051 100.989C142.362 101.974 141.615 102.917 140.814 103.813C139.414 105.319 137.93 106.756 136.456 108.228C134.982 109.699 133.474 111.111 132.045 112.615C129.789 115.04 127.923 117.803 126.514 120.804C124.874 124.196 123.116 127.524 121.18 130.756C120.077 132.558 118.851 134.28 117.512 135.912C116.483 137.189 115.053 137.69 113.587 138.122C111.375 138.773 109.113 139.145 106.831 139.511C103.506 140.05 100.145 140.384 96.8592 141.167C94.1314 141.829 91.5291 142.932 89.154 144.432C86.7008 145.956 84.2227 147.446 81.5706 148.615C79.3336 149.613 77.0245 150.361 74.6111 150.668C72.3062 150.921 69.9743 150.716 67.7485 150.065C64.0898 149.067 60.789 147.321 57.61 145.285C56.2852 144.442 54.9653 143.589 53.6604 142.714C51.5845 141.354 49.2504 140.441 46.8053 140.032C44.705 139.648 42.56 139.514 40.4398 139.234C37.7902 138.888 35.1431 138.528 32.5756 137.738C30.274 137.029 28.5043 135.643 27.0577 133.734C25.0121 131.043 23.5779 128.022 22.1512 124.984C21.2042 122.964 20.3591 120.889 19.3028 118.928C17.7791 116.09 15.6192 113.748 13.238 111.59C10.2877 108.921 7.37962 106.2 5.01587 102.965C4.46904 102.186 3.96377 101.378 3.50218 100.545C2.71675 99.1735 2.61484 97.6245 2.52287 96.1055C2.41351 94.2846 2.63969 92.4688 2.93796 90.6679C3.37376 88.024 3.80624 85.3792 4.23541 82.7336C4.48397 81.1871 4.83194 79.6406 4.91397 78.0842C4.99847 76.438 5.10784 74.7768 4.8046 73.1206C4.55605 71.7013 4.44171 70.2546 4.23541 68.8229C3.93963 66.7826 3.58917 64.7497 3.3083 62.7094C3.14923 61.6094 3.08461 60.4845 2.9827 59.3645C2.87637 58.6292 2.81908 57.8876 2.8112 57.1446C2.91062 55.0494 2.86836 52.9292 4.21056 51.0934C5.34188 49.5071 6.58802 48.0065 7.93887 46.6037C10.2082 44.299 12.5023 42.0167 14.789 39.7244C18.3732 36.1676 21.1272 32.0121 23.384 27.4899C24.674 24.9009 26.051 22.3517 27.4628 19.825C28.0047 18.8572 28.7379 17.9917 29.414 17.1037C30.4405 15.7543 31.8995 15.0808 33.4654 14.6094C35.5885 13.9637 37.7657 13.5129 39.9701 13.2625C42.0157 13.043 44.0538 12.7636 46.0969 12.5142C50.4341 11.9622 54.6239 10.5731 58.4352 8.42355C60.707 7.16394 63.0459 6.01656 65.3947 4.90909C67.6218 3.83766 69.9645 3.02748 72.3766 2.49462C73.8765 2.19552 75.4273 2.28131 76.8853 2.74405C79.7909 3.58961 82.4952 4.90161 85.1498 6.33583C87.7273 7.72765 90.2924 9.1469 92.9246 10.4265C95.338 11.5988 97.9155 12.3147 100.553 12.826C104.706 13.6267 108.857 14.4448 112.998 15.3203C114.159 15.5697 115.277 16.0187 116.413 16.3779C117.835 16.8293 118.722 17.9143 119.547 19.0667C121.262 21.4712 122.483 24.1476 123.773 26.799C124.682 28.6548 125.57 30.5205 126.507 32.3588C128.247 35.7386 130.561 38.7018 133.218 41.4056C134.525 42.7401 135.882 44.0271 137.142 45.3965C138.79 47.1974 140.374 49.0556 141.967 50.9114C142.394 51.4102 142.712 51.9989 143.108 52.5351C143.901 53.5534 144.286 54.8331 144.186 56.1219C144.162 56.4437 144.184 56.7804 144.184 57.1197ZM139.568 77.6028C139.417 58.2446 133.001 42.543 120.216 29.6924C107.699 17.1012 92.3479 10.5711 74.6011 10.3417C56.1037 10.0922 40.1068 16.5774 27.008 29.7148C14.5231 42.2287 8.03581 57.4838 7.70523 75.2232C7.38211 93.7858 13.76 109.779 26.7022 122.984C39.1871 135.725 54.5403 142.335 72.3045 142.661C90.5832 142.998 106.501 136.725 119.622 123.862C132.845 110.897 139.34 94.9955 139.568 77.5953V77.6028Z" fill="white"/>
<path d="M139.568 77.595C139.34 94.9952 132.857 110.896 119.622 123.862C106.501 136.725 90.5832 142.998 72.3046 142.674C54.5354 142.347 39.1872 135.737 26.7023 122.996C13.7601 109.779 7.38217 93.7855 7.70529 75.2229C8.02593 57.4835 14.5132 42.2284 26.9981 29.7145C40.0969 16.5846 56.0938 10.1019 74.5913 10.3414C92.338 10.5708 107.689 17.1009 120.206 29.6846C133.002 42.5352 139.417 58.2368 139.568 77.595ZM73.9674 12.4391C56.4294 12.6885 41.536 18.58 29.2276 30.5551C16.5787 42.862 10.0392 58.0597 9.82049 75.7018C9.60176 93.571 15.9076 109.1 28.5242 121.764C40.502 133.774 55.1195 140.095 72.0883 140.471C90.0886 140.863 105.643 134.654 118.461 121.976C130.707 109.861 137.06 94.9777 137.379 77.7546C137.704 60.1549 131.714 44.805 119.5 32.1091C106.985 19.0963 91.5476 12.7434 73.9674 12.4391Z" fill="black"/>
<path d="M73.9672 12.439C91.5474 12.7433 106.985 19.0962 119.5 32.1015C131.714 44.7974 137.704 60.1473 137.378 77.7471C137.06 94.9702 130.707 109.854 118.461 121.971C105.635 134.647 90.0884 140.855 72.0807 140.464C55.1143 140.094 40.4944 133.774 28.5165 121.756C15.9074 109.1 9.60155 93.5709 9.82276 75.6918C10.0415 58.0596 16.581 42.8619 29.2299 30.545C41.5358 18.5799 56.4217 12.6934 73.9672 12.439ZM53.9362 28.0208C53.3573 28.0344 52.7896 27.8593 52.3181 27.522C51.4208 26.9433 50.4937 26.4095 49.5666 25.8483L49.7182 25.5989C50.3993 24.5263 50.0637 23.7556 49.5666 23.1046C49.0695 22.4536 48.0082 22.1892 47.1034 22.5733C46.1987 22.9574 45.3809 23.4188 44.5557 23.8204C44.9037 24.0699 45.3014 24.207 45.4456 24.4789C46.3379 26.2449 47.1855 28.0383 48.0231 29.8267C48.1232 30.0034 48.1714 30.2048 48.1623 30.4079C48.0921 30.5998 47.9876 30.7773 47.8541 30.9317L47.9783 31.0813L50.1283 30.0088C49.86 30.0261 49.5935 29.9534 49.3708 29.8021C49.1481 29.6509 48.9818 29.4296 48.898 29.1732C48.6494 28.6045 48.3288 28.0757 48.0728 27.512C48.0045 27.2827 47.9669 27.0453 47.9609 26.8061C49.9792 26.5118 51.0008 28.3027 52.7257 28.8015L53.9088 27.9959C54.5876 28.0099 55.2547 27.8178 55.8227 27.4446C55.5742 27.2501 55.256 27.1229 55.1839 26.9084C54.8757 26.0907 54.8625 25.1906 55.1466 24.3642L57.4831 23.6882C58.1964 24.4365 58.7557 25.1274 59.0862 25.9331L58.7159 26.4095L58.8327 26.5567L60.8584 25.8882C60.1128 25.529 59.7151 24.9204 59.2801 24.3318C58.1243 22.7653 56.9164 21.2388 55.7606 19.6724C55.4573 19.2609 55.179 19.1386 54.6719 19.438V20.4032C54.6719 22.2341 54.6197 24.0649 54.6719 25.8907C54.7142 26.7338 54.5501 27.4372 53.9362 28.0208ZM92.7629 89.5925C92.6833 88.9539 93.1904 88.5523 93.3892 88.0261C93.685 87.2553 94.1349 86.4871 93.9286 85.6565C93.5831 84.2472 94.0081 82.9128 94.0976 81.4162C92.6634 82.2617 91.7711 83.4415 91.4853 84.9905C91.1597 86.7589 91.6618 88.4601 92.1887 90.1362C90.8167 92.0119 89.129 93.5858 87.4214 95.1373C87.2014 95.3133 86.9697 95.4741 86.728 95.6187C86.8997 95.25 87.0931 94.8919 87.3071 94.5461C87.9174 93.6663 88.2547 92.6248 88.2765 91.553C88.3162 90.6226 88.6045 89.7022 88.7736 88.7768C88.8133 88.5773 88.8581 88.3753 88.9426 87.9861C87.0014 89.1136 85.6716 90.4804 85.5299 92.5931C85.4454 93.8403 85.7337 95.1074 85.858 96.367C85.858 96.3944 85.9177 96.4194 85.9475 96.4468C85.8497 96.5805 85.7408 96.7057 85.6219 96.8209C83.775 98.404 81.8254 99.8623 79.7858 101.186C78.9507 101.71 78.9631 101.727 79.2241 102.792C79.5995 102.905 79.9969 102.921 80.3802 102.84C80.7634 102.759 81.1205 102.583 81.4188 102.328C83.0394 101.041 84.6948 99.7991 86.2433 98.4298C86.5983 98.0831 87.0369 97.8351 87.5163 97.7101C87.9956 97.585 88.4991 97.5872 88.9774 97.7164C90.6477 98.0756 92.2707 97.901 93.7496 96.9856C95.049 96.2288 96.0303 95.0242 96.5111 93.5958C95.139 94.1735 93.692 94.5523 92.2136 94.7207C91.3958 94.833 90.593 95.0699 89.7007 95.2695L93.5881 91.0167C93.7452 91.0619 93.907 91.0886 94.0703 91.0965C94.7662 91.0417 95.4597 90.902 96.1531 90.9144C98.6983 90.9593 101.298 89.146 102.161 86.537C102.223 86.3424 102.245 86.1354 102.325 85.7313C101.36 86.4972 100.231 87.0268 99.0264 87.2778C97.8106 87.5237 96.6634 88.0346 95.666 88.7743C95.6362 88.7968 95.5442 88.7344 95.4646 88.707C96.4092 87.3476 97.4854 86.0606 98.2584 84.6139C99.0314 83.1672 100.157 82.5236 101.614 82.1869C101.696 82.1695 101.778 82.167 101.862 82.147C104.815 81.4286 106.779 78.867 106.717 76.1258L101.353 79.4681L103.809 73.4818C104.833 72.9406 105.819 72.4267 106.791 71.8979C109.108 70.6508 110.373 68.1141 109.796 65.2856C109.274 65.8518 108.785 66.4479 108.228 66.9767C107.671 67.5055 107.012 67.9744 106.436 68.5032C106.046 68.8694 105.692 69.2729 105.379 69.708C105.152 70.0652 104.949 70.4377 104.773 70.8229L104.681 70.7855L106.041 64.1033L106.202 64.2928C106.726 63.7886 107.277 63.3132 107.853 62.8686C110.388 61.1226 110.964 58.4437 110.559 55.8846C110.477 55.5916 110.36 55.3095 110.211 55.044C109.451 56.2038 108.74 57.3063 108.007 58.3938C107.708 58.8403 107.323 59.2319 107.05 59.6909C106.83 60.1229 106.64 60.5696 106.481 61.0278L106.349 61.0054C106.456 59.0324 106.565 57.0569 106.679 54.9617L106.988 55.695C108.163 53.6996 108.504 51.31 108.074 49.4593C107.771 48.1548 107.047 47.0797 105.792 46.541C105.531 47.7681 105.27 48.928 105.046 50.0928C104.671 51.9885 104.865 53.7894 105.961 55.4406C106.127 55.6636 106.224 55.9308 106.239 56.2088C106.1 58.4313 106.08 60.6661 105.516 62.8911C105.468 62.7744 105.433 62.6532 105.409 62.5294C105.327 61.3256 104.859 60.1807 104.077 59.2643C103.497 58.5114 102.956 57.7297 102.454 56.9222C102.307 56.7027 102.205 56.4558 102.049 56.159C101.002 58.5385 101.845 61.4918 103.933 63.0108C104.268 63.2602 104.644 63.4473 104.949 63.7192C105.104 63.8289 105.223 63.9822 105.292 64.1598C105.36 64.3374 105.374 64.5312 105.332 64.7169C104.708 67.0865 104.184 69.486 103.237 71.873C103.19 71.7223 103.162 71.5665 103.152 71.4091C103.307 69.9923 102.904 68.7277 102.245 67.483C101.867 66.7622 101.688 65.9341 101.415 65.1584C101.358 64.9962 101.286 64.8391 101.201 64.6321C99.5385 66.4679 99.9386 70.142 101.567 71.6784C101.838 71.9337 102.088 72.2115 102.312 72.5091C102.491 72.7108 102.602 72.9637 102.63 73.2321C102.658 73.5005 102.602 73.771 102.469 74.0056C101.693 75.5596 100.978 77.1459 100.232 78.7049C99.9635 79.2536 99.6155 79.7649 99.3023 80.2912C99.1457 79.4482 99.3172 78.6126 99.1085 77.8892C98.7133 76.5348 98.3628 75.1929 98.4249 73.4718C98.0471 73.8964 97.6944 74.3428 97.3686 74.8088C96.347 76.5299 96.3346 78.3232 97.1051 80.1366C97.4133 80.8575 97.7762 81.5534 98.1291 82.2967C96.5359 84.8675 94.7415 87.3071 92.7629 89.5925ZM60.6472 95.8681C58.5568 94.2269 56.8244 92.2215 54.9851 90.2385C55.2088 89.4628 55.4101 88.6721 55.6612 87.8988C56.1831 86.29 55.8675 84.7984 55.0845 83.3692C54.6191 82.5637 53.9636 81.8853 53.1756 81.3937C53.1566 81.6186 53.1566 81.8448 53.1756 82.0697C53.4813 83.4216 53.4242 84.7885 53.372 86.1578C53.3498 86.7404 53.4883 87.3178 53.7721 87.8265C54.0207 88.283 54.2096 88.7694 54.4234 89.2433C53.8582 88.8335 53.3644 88.3329 52.9619 87.7617C51.811 86.1927 50.695 84.5989 49.5417 83.0225C49.1117 82.4413 49.1267 81.9026 49.4821 81.3014C49.7539 80.8383 49.9947 80.3575 50.2029 79.8622C51.0405 77.8992 50.7373 76.0684 49.5144 74.3748C49.2689 74.1034 49.0012 73.8531 48.7141 73.6265C48.7953 75.1361 48.5773 76.6468 48.0728 78.0713C47.9013 78.5901 48.033 79.2137 48.0529 79.7899C48.0759 80.0325 48.1149 80.2733 48.1697 80.5107C46.6866 78.2137 45.4462 75.7677 44.4688 73.2124C44.8441 72.7136 45.2517 72.1948 45.627 71.6535C46.0034 71.1633 46.3361 70.6408 46.6212 70.0921C47.183 68.8823 47.1183 67.5778 46.9071 66.3132C46.8076 65.7221 46.6585 65.0287 45.9477 64.6321C45.7513 65.338 45.6991 66.0239 45.3884 66.5701C44.4265 68.2837 43.9493 70.0771 44.26 72.1748C44.1898 72.1041 44.125 72.0282 44.0661 71.9478C43.1042 69.6581 42.5897 67.2386 42.018 64.8341C41.8689 64.208 42.1746 63.8164 42.627 63.4573C43.1957 63.0452 43.7355 62.5943 44.2426 62.1078C45.4133 60.8931 46.3155 58.1469 45.1771 56.3236C44.603 57.1816 44.0586 58.0995 43.4074 58.9351C42.7115 59.8281 42.0404 60.6811 41.9608 61.8883C41.8947 62.2321 41.7888 62.567 41.6452 62.8861C41.1307 59.5861 40.8722 56.3435 41.1704 53.0735C41.2152 53.525 41.2102 53.9764 41.2177 54.4304C41.2251 54.8844 41.1704 55.3558 41.3668 55.8222C42.699 53.9814 42.7413 51.9635 42.4455 49.9207C42.2815 48.7858 41.9335 47.6759 41.6601 46.5185C40.559 46.9949 40.0122 47.9577 39.5623 48.9829C39.1472 49.9257 39.2143 50.9434 39.2939 51.9286C39.3819 53.2487 39.776 54.5299 40.4447 55.6701C40.6413 55.9667 40.753 56.3118 40.7678 56.6678C40.8299 58.1644 40.9119 59.6435 40.9815 61.1326C40.9964 61.4394 40.9815 61.7487 40.9815 62.058C40.7301 60.7483 40.1404 59.5278 39.2715 58.5186C38.4189 57.461 37.5763 56.3809 37.1513 54.9143C37.0161 55.1039 36.8948 55.3032 36.7884 55.5104C36.433 56.3834 36.4404 57.3113 36.5399 58.2118C36.7387 59.9079 37.4272 61.397 38.7769 62.4994C39.4728 63.0681 40.2135 63.582 40.9691 64.1432L41.0586 63.2403L42.4729 70.561C41.9459 69.9 41.5458 69.1393 40.9269 68.6728C39.5905 67.6785 38.3978 66.5033 37.3825 65.1808C36.6567 68.2712 38.5805 71.1023 40.5938 71.9828C41.3842 72.3295 42.1224 72.7959 42.8954 73.185C43.293 73.3875 43.5943 73.74 43.733 74.1653C44.3718 75.7766 45.0628 77.3679 45.7364 78.9643C45.8085 79.1389 45.888 79.311 46.0247 79.6228C45.3511 79.1563 44.8565 78.7099 44.2848 78.438C42.8946 77.828 41.634 76.9558 40.5714 75.8689C40.5296 76.0583 40.5046 76.2511 40.4969 76.445C40.6559 78.6226 41.6452 80.3212 43.5416 81.3937C44.3353 81.8275 45.1865 82.1458 46.0694 82.3391C46.6163 82.4466 47.1345 82.6682 47.5906 82.9896C48.0466 83.3111 48.4302 83.725 48.7165 84.2048C49.7456 85.8036 50.9063 87.3177 52.0074 88.8691C52.0905 89.034 52.1587 89.2059 52.2112 89.383C50.7845 88.1358 50.3272 87.7916 48.386 87.3276C47.439 87.1032 46.5566 86.6043 45.6519 86.2252C45.4555 86.1429 45.2691 86.0356 44.9907 85.8959C45.545 88.7469 47.8739 90.7748 50.5509 90.8845C51.048 90.9045 51.5451 90.907 52.0422 90.9319C53.1806 90.9843 54.1549 91.2163 54.8782 92.3088C55.4847 93.2291 56.3969 93.945 57.1749 94.7507C57.4085 95.0001 57.6347 95.2495 57.8783 95.499C56.8194 95.1897 55.86 94.7731 54.8683 94.6559C53.7645 94.5416 52.6761 94.3083 51.6221 93.96C51.399 93.9139 51.1712 93.8946 50.9436 93.9026C51.7365 96.6239 55 98.3774 57.8534 97.7538C59.2801 97.442 60.3762 97.7538 61.45 98.7515C62.7474 99.9613 64.1841 101.031 65.576 102.126C65.9729 102.425 66.4152 102.657 66.8859 102.815C67.5545 103.049 68.1808 102.857 68.3001 102.441C68.4841 101.807 67.9944 101.585 67.5818 101.298C65.3747 99.7767 63.17 98.2477 61.2213 96.3844C61.6811 95.8856 61.4574 95.2096 61.5668 94.6384C61.9098 92.8425 61.7035 91.0915 60.416 89.6498C59.8294 88.9913 59.1881 88.4027 58.3629 88.1932C58.5568 89.2557 58.8476 90.2535 58.8948 91.2637C58.9282 92.4615 59.3006 93.6251 59.9686 94.6185C60.2221 94.9951 60.4235 95.4441 60.6472 95.8681ZM70.7385 88.1059C69.6747 88.6995 68.6481 89.2258 67.6688 89.8319C65.5163 91.1664 65.3896 94.5387 67.1369 96.2273C67.6618 96.6929 68.237 97.0978 68.8519 97.4345C69.4858 97.8137 70.1593 98.123 70.7658 98.4322C70.8553 99.4474 70.9298 100.393 71.0144 101.336C71.0589 101.622 71.0269 101.914 70.9216 102.184C70.8164 102.453 70.6417 102.69 70.4153 102.87C69.7167 103.456 69.072 104.105 68.489 104.808C67.4948 106.032 66.9331 107.399 67.3059 109.048C67.5818 110.265 68.3349 111.103 69.2944 111.807C69.8561 112.223 70.4526 112.592 71.0765 113.011V114.376C71.0765 116.578 71.0765 118.783 71.1138 120.986C71.1544 121.601 71.2671 122.21 71.4493 122.799C71.5935 123.35 72.0011 123.567 72.5778 123.56C73.1544 123.552 73.572 123.355 73.7609 122.836C73.9171 122.414 74.0149 121.971 74.0517 121.522C74.0828 120.983 74.0828 120.442 74.0517 119.903C74.0399 119.49 74.1658 119.084 74.4096 118.751C74.8449 118.098 75.2328 117.414 75.5704 116.705C76.3409 115.122 76.0675 113.859 74.8893 112.779C74.8297 112.725 74.7775 112.655 74.7128 112.605C74.4594 112.421 74.2655 112.166 74.1554 111.873C74.0454 111.579 74.024 111.259 74.0939 110.954C74.1336 110.706 74.1544 110.456 74.1561 110.205C74.171 109.457 74.1561 108.734 74.1834 107.998C74.2083 107.177 74.2257 106.352 74.3176 105.538C74.398 105.268 74.5594 105.03 74.78 104.855C75.4933 104.164 76.2415 103.508 76.9523 102.815C77.5225 102.213 77.9231 101.47 78.1131 100.662C78.3368 99.8715 78.1876 99.2629 77.6035 98.769C76.9772 98.2352 76.3061 97.7538 75.6375 97.2724C75.2075 96.9631 74.7476 96.6987 74.3276 96.4318C74.3276 95.4566 74.3102 94.586 74.3276 93.713C74.345 92.84 74.2058 91.8922 74.4767 91.0691C75.6226 90.5228 76.7435 90.0863 77.7651 89.4827C79.7535 88.3154 80.9963 86.6692 80.8323 84.2148C80.8173 84.0077 80.8323 83.8007 80.8323 83.5912C80.8438 82.9649 80.6949 82.3461 80.3998 81.794C80.1047 81.242 79.6734 80.7752 79.1471 80.4384C78.4938 80.0073 77.7974 79.6462 77.0691 79.3609C76.2787 79.0316 75.4486 78.7972 74.6482 78.5228C74.4891 76.8491 74.5413 72.968 74.7228 72.1174C76.1445 71.5163 77.5787 70.995 78.9308 70.3141C80.8646 69.3438 82.2689 67.8447 82.6591 65.6398C83.104 63.1081 82.6591 61.1625 80.3824 59.5213C79.4519 58.9095 78.4677 58.3844 77.442 57.9523C76.6267 57.5707 75.7617 57.2963 74.8073 56.9347C74.8645 54.1286 74.765 51.3225 74.8993 48.3643C75.7344 48.4915 76.4502 48.6137 77.1711 48.711C78.8935 48.9355 80.4023 49.5191 81.6251 50.8586C82.3957 51.7041 83.5241 51.8289 84.6227 51.6069C86.2085 51.2851 87.7545 51.3574 89.2085 52.0708C90.0064 52.4624 90.7521 52.5946 91.6195 52.1332L93.1233 53.9889L93.5433 53.2032L91.9774 51.5196C92.4994 50.4869 91.9774 49.7262 91.361 49.0253C90.588 48.1598 89.7554 47.3491 88.965 46.4961C87.9185 45.3661 86.5664 44.7501 85.1621 44.2512C84.0958 43.8696 82.8729 43.66 81.8737 44.0566C80.4569 44.6203 79.239 44.2462 77.9391 43.8945C77.268 43.7124 76.577 43.5977 75.9034 43.4281C75.553 43.3408 75.2174 43.1961 74.9216 43.0938C75.1702 38.6989 75.026 34.3888 75.0708 30.0237C73.5422 29.1906 72.021 29.3453 70.5023 29.8192C70.3134 29.8791 70.1295 30.2582 70.1096 30.5026C70.0574 31.1611 70.0873 31.8296 70.1096 32.4981C70.1693 35.5661 70.2364 38.6315 70.2861 41.6995C70.2861 42.0986 70.4203 42.5376 70.1121 42.8469C69.006 42.9691 67.9422 43.0814 66.8809 43.2036C64.4508 43.4441 62.1242 44.312 60.1277 45.7228C59.3292 46.2524 58.6748 46.9734 58.2238 47.8205C56.9686 50.3921 57.2295 52.8615 58.8004 55.2086C59.8244 56.7451 61.3133 57.7528 62.9836 58.3889C64.6538 59.0249 66.436 59.429 68.1684 59.9353L70.5222 60.6237V68.9547C70.2886 69.0345 70.0947 69.0919 69.9083 69.1692C68.9141 69.5708 67.895 69.9175 66.9455 70.3939C65.1833 71.2943 63.8933 72.6088 63.518 74.6691C63.083 77.0437 63.6621 79.3584 65.8444 80.7452C66.7793 81.3424 67.79 81.8106 68.8494 82.137C69.4683 82.3291 70.0922 82.5411 70.7409 82.7556L70.7385 88.1059ZM102.509 23.6733C103.023 24.7708 103.018 24.7658 102.337 25.6986C101.507 26.8335 100.689 27.9784 99.8516 29.1158C99.4316 29.6945 99.0041 30.2657 98.0123 30.3455C98.6486 30.7446 99.0811 31.0165 99.5161 31.2859C99.367 30.6274 99.618 30.1659 99.9262 29.7319C100.858 28.4249 101.8 27.1254 102.869 25.6413C102.372 28.0433 101.91 30.2308 101.398 32.6876L107.087 28.597C107.077 28.7863 107.046 28.9738 106.993 29.1557C106.247 30.4428 105.495 31.7273 104.738 33.0094C104.318 33.7203 104.311 33.7178 103.284 33.7328C104.015 34.2092 104.549 34.7305 105.176 34.93C105.315 34.4312 105.36 33.9897 105.558 33.628C106.418 32.0716 107.298 30.5276 108.225 29.0111C108.457 28.6344 108.879 28.3775 109.244 28.0383L108.178 27.3224C106.356 28.4174 104.805 29.894 102.767 31.0639C103.016 29.8167 103.205 28.819 103.411 27.8213C103.617 26.8236 103.853 25.751 104.08 24.6934L102.509 23.6733ZM51.3264 132.791L55.6313 127.768C55.7407 130.09 55.8426 132.232 55.947 134.422L57.7838 135.083L56.9188 134.048L58.8228 129.471C58.9968 129.055 59.1086 128.586 59.377 128.239C59.6455 127.892 60.0307 127.755 60.4682 127.451L58.3207 126.733C59.034 127.458 58.9968 128.037 58.6885 128.705C58.1542 129.868 57.6943 131.063 57.1972 132.242C57.1003 132.474 56.9735 132.694 56.8617 132.918L56.6728 132.871V125.927L52.072 131.28C52.0173 131.122 51.9502 131.03 51.9701 130.973C52.4672 129.357 52.9643 127.748 53.4291 126.121C53.5708 125.623 53.9958 125.575 54.5327 125.373L52.0646 124.538C52.594 125.076 52.5294 125.64 52.3579 126.219C51.8906 127.798 51.4034 129.371 50.9461 130.958C50.7696 131.571 50.5186 132.075 49.492 132.11L51.3264 132.791ZM115.421 119.858C114.777 120.108 114.347 120.19 113.972 119.813C112.863 118.696 111.698 117.631 110.659 116.451C109.58 115.224 110.266 113.331 111.859 112.959C112.605 112.779 113.229 113.091 113.753 113.6C114.762 114.583 115.762 115.574 116.751 116.573C117.34 117.169 117.33 117.179 117.248 118.212C117.892 117.481 118.595 117.017 119.174 116.02C118.302 116.538 117.862 116.232 117.434 115.785C116.477 114.812 115.468 113.887 114.524 112.899C113.709 112.044 111.698 112.103 110.873 112.899C110.209 113.535 109.766 114.229 109.819 115.176C109.811 115.286 109.79 115.394 109.757 115.498L109.011 115.054L107.925 116.199C108.919 116.222 108.919 116.222 109.625 116.92C110.743 118.027 111.862 119.13 112.973 120.245C113.631 120.908 113.622 120.918 113.567 121.799L115.421 119.858ZM86.8696 25.9555C87.2798 26.1351 87.6799 26.3471 88.1124 26.4893C89.1613 26.8385 90.2003 27.2576 91.279 27.4671C93.5483 27.9111 96.0015 25.5365 95.6486 23.2567C95.4 21.6579 94.6544 20.3658 93.0984 19.7223C92.1887 19.3482 91.2566 19.0314 90.3295 18.7046C90.094 18.6351 89.854 18.5817 89.6112 18.545C89.7106 18.9166 89.9269 19.2559 89.8473 19.5028C89.2558 21.386 88.6045 23.2442 87.9707 25.12C87.7943 25.6088 87.4513 25.8508 86.8696 25.9555ZM23.2546 61.9632L23.4883 61.8784C23.9158 60.7684 24.3731 59.6684 24.7534 58.5435C24.9637 58.0068 25.0676 57.434 25.0591 56.8574C24.8603 54.3256 22.2878 52.6644 19.8619 53.4077C19.3083 53.5769 18.7966 53.8617 18.3605 54.2434C17.9244 54.6252 17.5738 55.0952 17.3316 55.6227C16.7624 56.7825 16.3622 58.0272 15.8875 59.2369C16.1503 59.0557 16.4556 58.9464 16.7734 58.9197C17.0911 58.893 17.4103 58.9499 17.6994 59.0848C19.1485 59.656 20.615 60.1847 22.0839 60.7061C22.6805 60.9206 23.1875 61.1924 23.2546 61.9632ZM15.7408 93.5484L16.0515 93.6307C16.0913 92.8675 16.5213 92.6754 17.1601 92.5407C18.6837 92.224 20.1825 91.7924 21.6887 91.3934C22.3499 91.2237 23.0185 91.0142 23.5628 91.765C23.3739 90.6974 23.1428 89.7047 22.8719 88.7245C22.7804 88.3246 22.6233 87.9427 22.4071 87.5945C21.5471 86.3474 19.9514 86.32 19.0814 87.5496C18.7856 87.9662 18.6812 88.5174 18.4799 89.0288C18.4128 88.9764 18.286 88.8916 18.1692 88.7918C17.5727 88.2929 16.8668 88.1508 16.2106 88.5025C15.4923 88.8866 15.0026 89.5326 15.1543 90.4405C15.3307 91.4782 15.5445 92.5133 15.7408 93.5484ZM18.5744 66.5976C18.9596 65.6123 19.6779 65.2407 20.4559 64.9538C21.1121 64.7044 21.7733 64.4824 22.4444 64.2579C22.8669 64.1033 23.1378 63.8538 23.1403 63.355C23.1403 63.0881 23.2646 62.8187 23.4087 62.2525C22.069 63.794 20.2098 63.5745 18.9348 64.6171C18.8545 64.5295 18.7829 64.4342 18.721 64.3328C18.2239 63.153 17.6373 62.7938 16.4418 62.9235C15.4923 63.0257 14.8833 63.6344 14.6522 64.7044C14.513 65.3479 14.3415 65.984 14.2222 66.6325C14.196 66.9296 14.196 67.2284 14.2222 67.5255C14.518 67.0266 14.8908 66.842 15.4103 66.9543C17.0557 67.306 18.7036 67.6552 20.3466 68.0143C20.6733 68.0477 20.991 68.1415 21.2836 68.2912C21.5322 68.4608 21.6639 68.7901 21.9547 69.2116C22.1287 68.2837 22.2679 67.5379 22.4096 66.7921C21.9746 67.3035 21.4626 67.2311 20.9953 67.1438C20.2322 67.0016 19.4791 66.7971 18.5744 66.5976ZM105.168 118.229C105.718 118.327 106.257 118.157 106.597 118.668C107.067 119.374 107.592 120.045 108.119 120.781C107.271 121.24 106.528 121.135 105.777 120.843C104.867 120.487 103.953 120.138 103.075 119.798L101.773 120.796C103.659 120.699 104.945 121.906 106.495 122.071C106.441 122.57 106.374 123.009 106.344 123.45C106.334 123.7 106.384 123.948 106.491 124.174C106.598 124.399 106.758 124.595 106.958 124.745C107.666 125.368 108.521 125.545 109.354 125.046C110.276 124.493 111.126 123.817 112.006 123.193C111.151 123.263 110.798 122.694 110.428 122.195C109.476 120.948 108.551 119.676 107.621 118.407C107.432 118.187 107.286 117.933 107.191 117.658C107.127 117.391 107.209 117.087 107.236 116.661L105.168 118.229ZM41.757 127.241C42.8333 125.687 43.8822 124.206 44.8938 122.697C45.284 122.113 45.6046 121.492 46.7057 121.617L44.5433 120.078C44.7745 121.108 44.7919 121.113 44.2724 121.859C43.8797 122.43 43.4646 122.984 43.0595 123.545C42.269 122.914 42.2492 122.914 42.2367 122.118C42.2193 120.918 42.2367 119.719 42.2367 118.466L41.0114 117.673C41.4936 119.442 41.1182 121.033 41.2773 122.622C39.5126 122.515 38.4662 123.62 38.7595 125.161C38.8849 125.735 39.2293 126.236 39.7189 126.558C40.4198 127.057 41.153 127.523 41.8813 127.992C41.926 128.022 42.028 127.965 42.1473 127.937L41.757 127.241ZM89.2707 126.742C88.3801 126.787 87.5129 127.044 86.7404 127.491C88.0552 127.416 87.9683 128.269 88.09 128.853C88.2118 129.436 88.6617 130.055 88.4007 130.726C87.6551 130.893 87.143 130.561 86.6609 130.13C86.0892 129.655 85.5448 129.148 85.0303 128.611C84.3394 127.82 83.6409 127.862 82.8182 128.389C84.5332 128.888 85.1994 130.651 86.7578 131.382C86.6359 131.475 86.5189 131.575 86.4073 131.681C85.6468 132.514 85.5101 133.312 86.0345 134.141C86.6136 135.058 87.6004 135.443 88.4678 135.158C89.3353 134.874 90.2549 134.687 91.0627 134.48C90.767 134.103 90.3643 133.804 90.2599 133.422C89.7628 131.596 89.3726 129.738 88.8755 127.912C88.7611 127.438 88.9824 127.209 89.2732 126.737L89.2707 126.742ZM45.4978 30.7371C45.8433 28.6369 43.5938 26.4195 41.3916 26.4095C38.6576 26.4095 37.0295 28.7866 37.0419 30.7072C37.0569 32.9046 39.0304 34.9001 41.2351 34.9649C43.4969 35.0323 45.4853 33.0543 45.4978 30.7371ZM21.8851 81.6506C22.074 79.1065 19.6481 77.3355 17.7119 77.3679C15.286 77.4078 13.4268 79.2985 13.4343 81.5908C13.4343 84.2397 15.7458 85.8859 17.6597 85.9034C19.8967 85.9234 22.0293 83.918 21.8851 81.6506ZM27.2837 40.7143C25.1113 40.3925 23.0086 42.8594 23.0409 44.9122C23.0782 47.389 25.176 49.2523 27.2663 49.1874C30.0526 49.0976 31.5191 46.9425 31.539 44.9197C31.5663 42.5426 29.6748 40.7168 27.2837 40.7143ZM123.723 62.6167C123.703 65.0761 125.463 66.8919 127.841 66.9368C129.875 66.9742 132.087 65.5849 132.151 62.7489C132.171 62.1869 132.077 61.6268 131.875 61.1021C131.674 60.5774 131.369 60.0989 130.979 59.6953C130.589 59.2916 130.121 58.9712 129.605 58.7531C129.088 58.5351 128.533 58.4239 127.973 58.4263C125.537 58.4462 123.745 60.1798 123.725 62.6067L123.723 62.6167ZM27.7634 101.655C27.4726 101.972 27.2663 102.363 26.9283 102.538C25.4618 103.319 23.9605 104.034 22.2505 104.887C23.4137 101.997 24.4875 99.3501 25.6358 96.4642L18.6763 99.8116L17.6125 99.2554L18.6788 101.251C18.6241 100.503 18.9845 100.131 19.5512 99.859C20.7766 99.2703 21.992 98.6642 23.2174 98.0781C23.4764 97.9855 23.7424 97.9137 24.0127 97.8636L20.8312 105.758L21.5148 107.077C21.5956 106.689 21.707 106.308 21.8478 105.938C21.9619 105.685 22.15 105.472 22.3872 105.329C23.8512 104.581 25.3251 103.832 26.8115 103.127C27.5149 102.792 27.5298 102.827 28.3923 103.004C28.1636 102.515 27.9598 102.079 27.7634 101.655ZM85.1795 25.7784C85.3236 25.6537 85.428 25.6088 85.428 25.5515C85.7089 23.7606 85.9251 21.9572 86.2806 20.1837C86.4446 19.3631 86.2507 18.2956 87.5855 17.889L85.3137 17.5498C85.9873 17.9913 86.0594 18.4627 86.0072 18.9765C85.9028 19.837 85.8183 20.6976 85.6791 21.5531C85.5498 22.3488 85.3609 23.132 85.182 24.0474C83.7503 21.8025 82.3783 19.6824 81.0609 17.5348C80.5862 16.7641 79.9772 16.4648 78.9084 16.587L79.5671 17.1407C79.7591 17.3002 79.9027 17.5104 79.9818 17.7475C80.0609 17.9847 80.0722 18.2393 80.0145 18.4826C79.766 20.0241 79.5174 21.5706 79.2316 23.1071C79.1321 23.6359 78.983 24.1871 78.0857 24.4665L80.1462 24.8007C79.5373 24.4141 79.4751 23.8978 79.5746 23.3291C79.843 21.7651 80.1239 20.2012 80.4371 18.4402C81.2995 19.7847 82.0725 20.9944 82.8505 22.2016C83.6285 23.4089 84.3269 24.6311 85.1844 25.7784H85.1795ZM99.5484 131.2L100.915 130.551C101.484 130.321 102.038 130.053 102.571 129.748C105.255 128.002 104.907 124.049 102.29 122.495C100.471 121.412 97.2841 122.303 95.9046 124.383C95.9035 124.425 95.9103 124.466 95.9245 124.505C96.1482 124.944 96.3793 125.383 96.603 125.825C97.0181 126.635 97.0156 126.635 96.5061 127.668L98.9444 126.343C98.0993 126.343 97.8135 125.999 97.5624 125.55C96.6726 123.959 96.7646 123.682 98.4473 122.879C99.8765 122.2 101.057 122.609 101.964 123.477C102.602 124.126 103.097 124.902 103.416 125.755C104.385 128.082 102.123 130.299 100.287 130.047C99.7599 129.94 99.2403 129.8 98.7307 129.628C99.0314 130.202 99.3023 130.716 99.5484 131.2ZM117.541 35.4463C117.541 36.0475 117.641 36.5463 117.521 36.9903C117.198 38.2175 116.776 39.4173 116.368 40.7467C114.7 40.4798 113.057 41.4227 111.397 40.6145L112.866 42.3755C112.95 41.3778 113.013 41.283 113.733 41.2406C114.569 41.1882 115.404 41.1658 116.308 41.1283C115.946 42.2109 115.612 43.2136 115.272 44.2287L114.25 44.129L116.179 46.4162C115.913 45.6505 116.09 44.992 116.316 44.316C116.589 43.4979 116.813 42.6598 117.062 41.8392C117.175 41.5376 117.303 41.242 117.447 40.9537C118.098 40.9537 118.702 41.0635 119.249 40.9313C120.219 40.7111 121.232 40.7638 122.174 41.0834L120.758 39.3699C120.708 40.3376 120.656 40.4299 120.012 40.4649C119.207 40.5098 118.399 40.5098 117.467 40.5297C117.715 39.7066 117.936 38.9209 118.212 38.1576C118.406 37.6164 118.441 37.6288 119.373 37.6588L117.541 35.4463ZM77.4196 24.4714C77.098 24.0025 76.8154 23.5078 76.5745 22.9923C76.1072 21.7626 75.7195 20.498 75.292 19.2509C74.9987 18.3953 74.7029 17.5373 74.3798 16.6917C74.3176 16.5321 74.0989 16.3026 73.9846 16.3201C73.7639 16.3793 73.5674 16.5067 73.4228 16.6843C73.3234 16.7915 73.3359 16.996 73.2837 17.1532C72.7393 18.747 72.1726 20.3359 71.6482 21.9397C71.3599 22.8227 71.1983 23.7581 70.1892 24.4041C70.9522 24.5113 71.4916 24.5538 71.9663 24.4265C71.8445 24.0125 71.6109 23.6558 71.678 23.369C71.8729 22.6705 72.1086 21.9842 72.3839 21.3137H74.9614C75.1702 21.9622 75.3293 22.6007 75.5778 23.2043C75.809 23.7656 75.5778 24.1073 75.113 24.4665L77.4196 24.4714ZM133.692 77.3704C133.789 76.5723 133.372 76.5074 132.964 76.3727C131.055 75.7417 129.159 75.0632 127.247 74.4496C126.939 74.3723 126.649 74.2335 126.395 74.0415C126.141 73.8496 125.928 73.6083 125.768 73.3322V75.0931L126.464 74.6566C126.884 74.7988 127.235 74.9061 127.58 75.0358C127.963 75.1705 128.341 75.3126 128.736 75.4573V78.0314L126.365 78.8196L125.619 78.3208C125.496 79.172 125.508 80.0373 125.654 80.8849C126.126 79.9396 126.78 79.7275 127.441 79.5155C128.065 79.316 128.684 79.104 129.308 78.887C130.779 78.3856 132.246 77.8718 133.692 77.3654V77.3704ZM31.9317 108.115C31.6831 109.055 31.698 109.068 30.9797 109.302C30.4031 109.489 29.8115 109.639 29.1976 109.816L27.751 107.681L29.4163 105.524L30.4826 106.022C29.8364 105.109 29.3716 104.451 28.9142 103.8C28.6806 104.354 28.5563 104.86 28.2804 105.262C27.0849 107.008 25.8421 108.706 24.6217 110.43C24.4427 110.679 24.306 110.969 24.1743 111.196C24.5272 111.759 24.92 111.59 25.3301 111.47C26.9805 110.971 28.6358 110.485 30.2788 109.953C31.1636 109.667 32.0187 109.327 33.1918 109.908C32.6773 109.178 32.3468 108.704 31.9317 108.115ZM21.388 75.0133C20.1452 75.9861 19.3996 74.7639 18.3382 74.6766C18.4774 73.6988 18.2314 72.8283 18.6141 72.0102C19.2778 71.8231 19.9066 71.6335 20.5429 71.4739C21.1071 71.3317 21.1568 71.3766 21.5197 72.105C21.9895 71.3367 21.8801 70.5336 21.813 69.5359C21.3159 70.3415 20.6175 70.4812 19.934 70.6533C17.9853 71.1522 16.0416 71.651 14.0954 72.1623C13.9755 72.1874 13.8588 72.2258 13.7474 72.2771C13.6704 72.3098 13.6041 72.3636 13.5561 72.4325C13.5082 72.5013 13.4805 72.5823 13.4764 72.6661C13.4722 72.75 13.4917 72.8333 13.5326 72.9066C13.5735 72.9798 13.6342 73.04 13.7077 73.0802C13.9207 73.2077 14.1444 73.3162 14.3763 73.4045C15.7781 73.9957 17.1924 74.5594 18.5843 75.1779C19.5462 75.6045 20.6398 75.8165 21.388 77.0237V75.0133ZM114.086 32.1564C113.48 31.6575 113.477 31.6375 112.809 32.0217C111.091 33.0044 109.376 33.9996 107.659 34.9824C107.382 35.1626 107.084 35.3067 106.771 35.4114C106.503 35.4837 106.2 35.4264 105.727 35.4264L106.911 36.5438C107.423 35.3416 108.519 35.0472 109.438 34.481L111.327 36.227C111.059 36.8731 110.843 37.4542 110.582 38.013C110.286 38.6315 110.184 38.6665 109.319 38.6565C109.665 38.9708 109.958 39.2551 110.269 39.5145C110.579 39.7739 110.753 40.1705 111.315 40.2129C110.982 39.6118 111.163 39.1254 111.375 38.6266C112.282 36.4765 113.182 34.3089 114.086 32.1564ZM93.0736 133.801L97.3984 132.128C96.5807 132.095 96.3893 131.507 96.1805 130.955C95.579 129.374 94.9651 127.8 94.4033 126.216C94.2567 125.797 94.289 125.316 94.2293 124.777C92.852 125.209 91.5044 125.731 90.1953 126.341C90.2226 126.755 90.2425 127.117 90.2649 127.478C90.5731 126.481 91.4256 126.231 92.231 125.932C92.7977 125.722 93.0288 125.752 93.255 126.246C93.6253 127.054 94.0205 127.862 94.1846 128.808L92.4621 129.454L91.5077 129.002C91.6568 129.424 91.7388 129.703 91.8532 129.965C91.9675 130.227 92.1017 130.464 92.2658 130.761C92.7007 129.723 92.7455 129.693 94.4729 129.294C94.7389 130.329 95.4547 131.225 95.4547 132.412C94.54 132.709 93.7496 133.35 92.6784 132.781C92.686 132.97 92.7135 133.157 92.7604 133.34C92.8476 133.505 92.9526 133.66 93.0736 133.801ZM45.4307 126.388C46.5939 126.174 47.1034 126.361 47.946 127.279L46.4547 130.022C45.9303 129.753 45.4605 129.524 44.9932 129.274C44.7843 129.183 44.6043 129.037 44.4728 128.85C44.3413 128.664 44.2634 128.445 44.2475 128.217C44.2475 128.189 44.1456 128.167 44.0586 128.127L43.6957 129.09L47.7223 131.175C47.4738 130.339 47.7223 129.756 48.0231 129.179C48.7389 127.825 49.4821 126.488 50.1681 125.119C50.439 124.58 50.8094 124.248 51.6942 124.176C50.0438 123.335 48.7116 122.537 47.2501 121.931L46.5541 122.911C47.8466 122.248 48.6668 122.971 49.5567 123.677C49.3752 124.787 48.7638 125.645 48.2468 126.54C46.6436 125.952 46.6163 125.929 46.2981 124.817C46.1697 124.99 46.0502 125.17 45.9402 125.356C45.7637 125.687 45.6121 126.017 45.4307 126.388ZM63.165 136.48C63.503 135.904 63.6994 135.592 63.8709 135.27C64.7085 133.709 65.5337 132.138 66.3763 130.579C66.7318 129.923 67.04 129.219 68.059 128.8L66.1974 128.476C66.8386 129.853 65.7152 130.544 65.3697 131.576C64.9123 131.479 64.5619 131.389 64.2065 131.327C63.8038 131.262 63.3962 131.225 62.8916 131.162C62.7077 130.04 62.0739 128.95 63.0308 127.85L60.7441 127.511C61.1222 127.804 61.3703 128.235 61.4351 128.71C61.6364 130.092 61.8974 131.454 62.136 132.841C62.2976 133.771 62.4392 134.707 62.6331 135.63C62.6828 135.869 62.8991 136.069 63.165 136.48ZM123.693 91.3684L123.004 93.2541C123.75 92.6779 124.22 92.8824 124.682 93.3164C125.097 93.7056 125.562 94.0398 125.987 94.384L125.04 96.8608C124.113 96.6912 123.149 97.0604 122.323 96.4742C122.284 96.1874 122.251 95.9754 122.179 95.4516C121.799 96.5291 121.516 97.3223 121.215 98.1728C121.737 97.9683 122.122 97.7139 122.522 97.674C123.385 97.587 124.255 97.5937 125.117 97.6939C126.72 97.9284 128.314 97.7264 129.887 97.8361L130.24 97.1128C130.106 97.0155 129.966 96.9257 129.835 96.8234C128.15 95.494 126.474 94.152 124.772 92.8326C124.259 92.4794 123.879 91.9638 123.693 91.3684ZM125.657 87.8115C125.726 87.6943 125.771 87.6519 125.763 87.627C125.659 87.3177 125.537 87.0159 125.443 86.7041C124.856 84.7436 125.57 82.9626 127.642 82.4638C128.306 82.303 128.996 82.2866 129.666 82.4157C130.336 82.5447 130.971 82.8163 131.527 83.2121C132.733 84.0227 132.979 85.7962 132.522 86.8537C132.166 87.6744 131.527 88.1009 130.65 88.5374L132.504 88.8766C132.529 88.5307 132.574 88.1867 132.641 87.8465C132.74 87.5327 132.856 87.2246 132.989 86.9236C133.844 84.6912 132.459 82.0971 130.183 81.3788C128.535 80.8575 126.561 81.4037 125.629 82.7207C124.747 83.9678 124.202 86.098 125.657 87.8115ZM32.655 110.747L32.6724 110.971C33.0203 111.086 33.3783 111.176 33.7113 111.323C35.3543 112.046 36.3684 113.568 35.5034 115.563C35.2293 116.217 34.8071 116.797 34.2704 117.258C33.7336 117.719 33.0971 118.048 32.4114 118.219C31.7694 118.407 31.082 118.362 30.4697 118.092C29.8575 117.822 29.3596 117.345 29.0634 116.743C28.8488 116.39 28.7108 115.996 28.6582 115.586C28.6358 115.176 28.8198 114.757 28.959 114.149L27.4999 115.364C27.8877 115.92 28.3003 116.421 28.6184 116.977C28.9231 117.471 29.3233 117.899 29.7954 118.235C30.2675 118.57 30.802 118.808 31.3671 118.933C31.9323 119.058 32.5167 119.068 33.0859 118.963C33.655 118.857 34.1973 118.639 34.6807 118.319C36.2018 117.344 36.7735 115.907 36.5349 114.164C36.3236 112.592 35.3269 111.565 33.945 110.921C33.5547 110.774 33.0875 110.814 32.655 110.747ZM120.268 114.713C120.656 114.303 120.964 113.999 121.25 113.675C122.55 112.198 122.035 110.011 120.007 109.684C119.525 109.609 118.98 109.829 118.481 109.978C117.852 110.163 117.238 110.425 116.624 110.637C115.893 110.886 115.486 110.387 115.066 109.926C114.646 109.465 114.907 109.083 115.105 108.679C115.255 108.31 115.522 108.002 115.864 107.801C116.207 107.601 116.606 107.52 116.999 107.571C117.26 107.591 117.516 107.634 117.859 107.676C117.519 106.988 116.895 106.791 116.535 106.494C116.293 106.796 116.025 107.077 115.734 107.332C115.128 107.773 114.676 108.394 114.442 109.108C114.325 109.442 114.307 109.804 114.391 110.148C114.476 110.492 114.658 110.804 114.917 111.046C115.448 111.615 116.055 112.004 116.905 111.664C117.473 111.429 118.054 111.225 118.645 111.053C119.109 110.898 119.593 110.814 120.081 110.804C120.415 110.825 120.732 110.955 120.984 111.174C121.237 111.393 121.411 111.688 121.481 112.016C121.59 112.515 121.173 113.201 120.631 113.56C120.134 113.892 119.637 113.695 119.052 113.742L120.268 114.713ZM84.1877 136.163C83.6533 135.665 83.1339 135.211 82.6517 134.719C82.336 134.397 82.1222 133.971 81.7792 133.679C80.8298 132.896 80.6061 131.841 80.5365 130.706C80.561 130.416 80.5434 130.125 80.4843 129.84C80.2755 129.279 80.539 128.932 81.1082 128.439L78.6226 128.738C79.1048 129.032 79.4404 129.322 79.5 129.858C79.582 130.606 79.6864 131.329 79.7486 132.068C79.8063 132.352 79.7865 132.647 79.6914 132.921C78.9209 134.3 78.5878 135.966 77.1537 137.031L79.3136 136.687C78.7295 136.438 78.6574 136.049 78.8165 135.69C79.1843 134.871 79.6143 134.081 80.0443 133.233C80.5887 133.851 81.0386 134.378 81.5083 134.901C82.1272 135.607 82.1272 135.605 81.6351 136.458L84.1877 136.163ZM35.3443 41.258C34.8149 41.1658 34.3103 41.2231 34.0121 41.0086C33.3168 40.4305 32.653 39.8151 32.0236 39.1653C32.7693 38.5418 33.1446 37.5815 34.4346 37.7236C33.9648 37.2697 33.6442 36.9504 33.3087 36.6486C33.207 36.5884 33.0961 36.5454 32.9806 36.5214C33.0825 37.574 32.8836 37.9132 31.5514 38.9059C30.8306 38.1443 30.0982 37.3686 29.3542 36.5787C29.9929 35.7681 30.4627 34.7629 32.0162 35.0398L30.9698 34.1568C29.8935 35.3565 28.7328 36.3443 27.8131 37.6488C28.7179 37.5316 28.7179 37.5316 29.2622 38.0379C30.4155 39.108 31.5539 40.193 32.7221 41.2406C33.2366 41.702 33.6815 42.171 33.597 43.1088L35.3443 41.258ZM132.922 68.0193C132.728 68.2288 132.564 68.5681 132.333 68.6254C131.69 68.763 131.039 68.8555 130.384 68.9023C129.278 69.012 128.147 69.0145 127.068 69.229C126.298 69.3812 125.662 69.4286 125.097 68.608C125.194 69.5558 125.269 70.3141 125.366 71.2769C126.295 69.6356 127.782 70.4438 129.052 69.9748C129.124 70.5934 129.251 71.0848 129.221 71.5637C129.193 71.9902 128.99 72.4043 128.855 72.8558L130.456 72.5739C129.397 71.893 129.482 70.9426 129.586 69.9175C130.732 70.0422 131.756 69.4835 132.914 69.7504C132.942 70.3515 132.954 70.9252 133.001 71.4964C133.028 71.7034 132.982 71.9134 132.87 72.0894C132.758 72.2655 132.588 72.3964 132.39 72.4592C132.37 72.4592 132.39 72.5689 132.39 72.6936L133.459 72.5764C133.498 70.9227 133.225 68.6803 132.922 68.0193ZM128.254 51.5994C128.187 52.3876 127.67 52.662 127.043 52.9089C125.666 53.4477 124.309 54.0338 122.94 54.5925C122.614 54.7649 122.259 54.8773 121.893 54.9243C121.553 54.9243 121.207 54.7272 120.78 54.5851L122.637 58.98L123.879 58.8578C122.617 58.4537 122.311 57.431 122.072 56.3261C122.172 56.2088 122.254 56.0243 122.388 55.9669C124.342 55.1163 126.303 54.2807 128.246 53.4501L129.275 54.0712L128.254 51.5994ZM125.363 46.0072L125.09 45.9922C125.251 46.6382 125.005 46.9899 124.456 47.2718C123.243 47.8854 122.067 48.5738 120.877 49.2323C120.479 49.4493 120.099 49.7461 119.674 49.8559C119.249 49.9656 118.791 49.8783 118.245 49.8783C119.204 51.2178 119.629 52.7692 120.631 53.9814L121.767 53.5724C120.524 53.1733 120.385 53.0511 119.942 52.0184C119.627 51.2701 119.694 51.0457 120.439 50.6391C121.667 49.9631 122.905 49.3046 124.135 48.6436C124.498 48.4466 124.831 48.1448 125.217 48.0525C125.602 47.9602 126.022 48.0974 126.484 48.1373L125.363 46.0072ZM120.966 98.5245C120.506 99.4175 120.149 100.113 119.788 100.807L118.712 102.895L119.706 103.675C119.428 101.997 119.477 101.839 120.581 100.645C120.663 100.645 120.76 100.605 120.83 100.645C122.591 101.534 124.352 102.428 126.111 103.326C126.346 103.42 126.544 103.589 126.673 103.808C126.801 104.026 126.854 104.281 126.822 104.533C127.299 103.785 127.752 103.082 127.941 102.206C127.421 102.742 126.924 102.615 126.372 102.321C124.956 101.573 123.524 100.842 122.092 100.116C121.511 99.8066 121.046 99.435 120.966 98.5245ZM60.252 17.8266C60.5074 18.0168 60.7202 18.2587 60.8765 18.5368C61.0328 18.8148 61.1291 19.1227 61.1592 19.4404C61.4077 21.0218 61.7582 22.5882 62.054 24.1621C62.1331 24.4397 62.145 24.7321 62.0888 25.0152C62.0043 25.2646 61.7358 25.4567 61.4202 25.8209L66.0134 24.9429C66.2794 24.1372 66.2794 24.1372 66.1203 23.4463C65.8221 24.6934 64.8776 24.7732 63.9828 24.9129C63.8926 24.9381 63.7982 24.9443 63.7055 24.9312C63.6128 24.9181 63.5238 24.886 63.444 24.8369C63.3643 24.7877 63.2954 24.7226 63.2419 24.6455C63.1883 24.5685 63.1511 24.4812 63.1327 24.3891C63.0755 24.1397 62.9687 23.9202 62.9264 23.6783C62.653 22.1393 62.3895 20.6003 62.1211 19.0613C62.0714 18.782 61.9297 18.4801 61.9918 18.2282C62.054 17.9763 62.3224 17.7942 62.6331 17.4201L60.252 17.8266ZM72.9282 134.774C73.4025 134.791 73.8643 134.62 74.2147 134.299C74.565 133.977 74.776 133.531 74.8023 133.056C74.8272 132.1 73.9945 131.337 73.0152 131.24C71.9937 131.137 71.1759 132.13 71.1337 132.986C71.0914 133.841 72.026 134.974 72.9183 134.774H72.9282ZM132.064 90.5004C131.844 90.6521 131.591 90.7493 131.326 90.784C131.062 90.8186 130.792 90.7899 130.541 90.6999C129.049 90.2485 127.526 89.9516 126.019 89.5775C125.351 89.4129 124.645 89.2782 124.376 88.273C124.128 89.2483 123.951 89.9891 123.705 90.9868C124.406 90.2984 124.98 90.2385 125.644 90.5004C126.152 90.6543 126.668 90.7801 127.19 90.877C128.527 91.2237 129.862 91.5804 131.142 91.9196C131.229 92.2713 131.281 92.4958 131.336 92.7203H131.532L132.064 90.5004ZM35.6227 123.467L35.9384 123.325C35.2772 122.879 35.3692 122.46 35.752 122.021C36.8903 120.709 37.9889 119.367 39.1571 118.077C39.5101 117.688 39.9997 117.426 40.4645 117.08C39.9525 116.678 39.5673 116.082 38.752 115.733C39.0453 116.421 38.8415 116.863 38.4786 117.284C37.4496 118.471 36.4032 119.644 35.4413 120.886C35.0013 121.452 34.5589 121.846 33.505 121.694L35.6227 123.467ZM117.961 49.347C117.907 48.1897 117.902 48.1822 118.707 47.6559C120.086 46.748 121.468 45.8434 122.853 44.9421C123.636 44.4433 123.638 44.4433 124.652 44.8822L123.111 42.5626C123.034 43.2385 123.032 43.68 122.5 43.9968C121.083 44.8398 119.731 45.7927 118.349 46.6956C117.487 47.2593 117.484 47.2543 116.512 47.1022C116.96 47.8006 117.38 48.4516 117.961 49.347Z" fill="white"/>
<path d="M70.7461 88.1062V82.756C70.0874 82.5415 69.4735 82.3295 68.8546 82.1374C67.7903 81.8138 66.7744 81.3473 65.8347 80.7506C63.6524 79.3637 63.0732 77.049 63.5082 74.6745C63.8835 72.6142 65.1735 71.2997 66.9358 70.3992C67.8852 69.9154 68.9068 69.5761 69.8985 69.1745C70.0849 69.0972 70.2788 69.0399 70.5125 68.96V60.6291L68.1586 59.9407C66.4188 59.4418 64.654 59.0352 62.9738 58.3942C61.2936 57.7532 59.8147 56.7505 58.7906 55.214C57.2247 52.8669 56.9588 50.3975 58.214 47.8259C58.6651 46.9787 59.3194 46.2578 60.1179 45.7282C62.1116 44.319 64.4346 43.4511 66.8612 43.2089C67.9225 43.0867 68.9863 42.9745 70.0924 42.8523C70.4006 42.543 70.2738 42.104 70.2664 41.7049C70.2167 38.6369 70.1496 35.5714 70.0899 32.5034C70.0899 31.8375 70.0477 31.169 70.0899 30.508C70.1098 30.2586 70.2937 29.8844 70.4826 29.8246C72.0013 29.3506 73.5225 29.196 75.0511 30.0291C75.0063 34.3941 75.143 38.7043 74.9019 43.0992C75.1977 43.2015 75.5332 43.3486 75.8837 43.4334C76.5573 43.603 77.2483 43.7178 77.9194 43.8999C79.2193 44.2516 80.4372 44.6257 81.854 44.062C82.8482 43.6654 84.0761 43.8749 85.1424 44.2566C86.5467 44.7554 87.8988 45.3765 88.9452 46.5014C89.7356 47.3545 90.5683 48.1651 91.3413 49.0306C91.9652 49.7265 92.4797 50.4873 91.9577 51.5249L93.5236 53.2086L93.1036 53.9943L91.6197 52.131C90.7522 52.5925 90.0066 52.4603 89.2087 52.0687C87.7547 51.3578 86.2087 51.283 84.6229 51.6047C83.5243 51.8267 82.3859 51.702 81.6253 50.8565C80.4024 49.517 78.8912 48.9334 77.1712 48.7089C76.4504 48.6141 75.7346 48.4894 74.8994 48.3622C74.7652 51.3204 74.8646 54.1265 74.8075 56.9326C75.7619 57.2942 76.6269 57.5686 77.4422 57.9502C78.4678 58.3823 79.4521 58.9074 80.3825 59.5191C82.6692 61.1604 83.1166 63.1059 82.6593 65.6376C82.2716 67.8426 80.8672 69.3417 78.931 70.312C77.5789 70.9929 76.1447 71.5142 74.723 72.1153C74.5415 72.9659 74.4893 76.8545 74.6484 78.5207C75.4487 78.795 76.2789 79.0195 77.0693 79.3588C77.7976 79.6441 78.494 80.0052 79.1472 80.4363C79.6736 80.7731 80.1049 81.2399 80.4 81.7919C80.6951 82.3439 80.844 82.9628 80.8324 83.5891C80.8324 83.7986 80.8324 84.0056 80.8324 84.2127C81.0014 86.667 79.7413 88.3133 77.7653 89.4806C76.7437 90.0842 75.6227 90.5207 74.4769 91.067C74.206 91.8901 74.3501 92.813 74.3278 93.7109C74.3054 94.6089 74.3278 95.4569 74.3278 96.4297C74.7478 96.6966 75.2076 96.961 75.6376 97.2703C76.3063 97.7492 76.9774 98.2306 77.6037 98.7669C78.1878 99.2657 78.3369 99.8693 78.1132 100.66C77.9233 101.468 77.5227 102.211 76.9525 102.813C76.2416 103.506 75.4935 104.162 74.7801 104.853C74.5596 105.028 74.3982 105.266 74.3178 105.536C74.2259 106.35 74.2085 107.175 74.1836 107.996C74.1612 108.732 74.1712 109.467 74.1563 110.203C74.1546 110.454 74.1338 110.704 74.0941 110.951C74.0242 111.257 74.0456 111.577 74.1556 111.871C74.2657 112.164 74.4596 112.419 74.713 112.603C74.7776 112.653 74.8298 112.722 74.8895 112.777C76.0627 113.857 76.3411 115.119 75.5705 116.703C75.233 117.412 74.8451 118.096 74.4098 118.749C74.1722 119.084 74.0524 119.49 74.0693 119.901C74.1003 120.44 74.1003 120.981 74.0693 121.52C74.0325 121.969 73.9347 122.412 73.7785 122.834C73.5846 123.353 73.1546 123.553 72.5953 123.558C72.0361 123.563 71.6011 123.348 71.4669 122.797C71.2846 122.208 71.172 121.599 71.1314 120.984C71.0866 118.781 71.1015 116.576 71.0941 114.374V113.009C70.4702 112.59 69.8737 112.221 69.3119 111.805C68.3625 111.101 67.6093 110.263 67.3235 109.046C66.9507 107.402 67.5223 106.035 68.5066 104.806C69.0896 104.103 69.7343 103.454 70.4329 102.867C70.6592 102.688 70.834 102.451 70.9392 102.182C71.0445 101.912 71.0765 101.62 71.0319 101.333C70.9375 100.391 70.8629 99.4453 70.7834 98.4301C70.1769 98.1183 69.5033 97.8091 68.8695 97.4324C68.2546 97.0957 67.6793 96.6907 67.1545 96.2252C65.4146 94.5365 65.5339 91.1643 67.6864 89.8298C68.6558 89.2262 69.6823 88.6999 70.7461 88.1062ZM70.2788 55.7727C70.4453 53.68 70.3683 48.6715 70.167 47.7336C69.2722 47.7336 68.3649 47.7012 67.4602 47.7336C66.8026 47.755 66.1488 47.8436 65.5091 47.998C64.83 48.1594 64.1755 48.411 63.5629 48.7463C62.0715 49.6118 61.8056 51.8292 63.1876 52.9542C63.5804 53.3197 64.0231 53.6271 64.5024 53.8671C65.6706 54.3659 66.8736 54.775 68.0766 55.1791C68.7626 55.4185 69.4785 55.5632 70.2788 55.7727ZM74.8646 62.0808C74.8025 63.1833 74.7752 64.0388 74.6956 64.8919C74.6161 65.7449 74.5241 66.5655 74.7876 67.5483C75.3816 67.219 75.9185 67.0095 76.3535 66.6678C77.6609 65.6302 77.5963 63.8792 76.2342 62.9263C75.8415 62.632 75.409 62.4075 74.8646 62.0808ZM70.5448 77.4182V73.4847C69.6301 73.9835 68.7676 74.4475 68.872 75.6024C68.959 76.5527 69.5307 77.1513 70.5448 77.4182ZM74.7304 86.3852C75.8638 85.3176 75.8265 84.6741 74.5713 83.9059C74.6658 84.7439 74.0693 85.5371 74.7304 86.3852Z" fill="black"/>
<path d="M61.204 96.3748C63.1526 98.238 65.3573 99.767 67.5645 101.289C67.9771 101.575 68.4667 101.787 68.2828 102.431C68.1635 102.847 67.5371 103.04 66.8685 102.805C66.3978 102.648 65.9555 102.415 65.5586 102.117C64.1593 101.022 62.7301 99.9516 61.4326 98.7419C60.3589 97.7441 59.2628 97.4398 57.8361 97.7441C54.9827 98.3677 51.7191 96.6142 50.9262 93.893C51.1539 93.885 51.3817 93.9042 51.6048 93.9503C52.6588 94.2987 53.7471 94.532 54.8509 94.6462C55.8451 94.7635 56.8021 95.18 57.8609 95.4893C57.6124 95.2274 57.3911 94.978 57.1575 94.741C56.3795 93.9354 55.4673 93.2195 54.8609 92.2991C54.1376 91.2066 53.1632 90.9746 52.0249 90.9223C51.5277 90.8973 51.0306 90.8948 50.5335 90.8749C47.8566 90.7751 45.5276 88.7472 44.9734 85.8863C45.2517 86.026 45.4382 86.1357 45.6345 86.2155C46.5442 86.5947 47.4266 87.0935 48.3686 87.318C50.3098 87.7819 50.7672 88.1286 52.1939 89.3733C52.1413 89.1963 52.0731 89.0243 51.9901 88.8595C50.889 87.308 49.7282 85.794 48.6992 84.1951C48.4142 83.719 48.0334 83.3078 47.581 82.9878C47.1286 82.6678 46.6146 82.4461 46.072 82.3369C45.189 82.1436 44.3379 81.8253 43.5442 81.3916C41.6477 80.319 40.6585 78.6204 40.4994 76.4429C40.5072 76.249 40.5321 76.0562 40.574 75.8667C41.6365 76.9536 42.8971 77.8258 44.2874 78.4358C44.8615 78.7077 45.3561 79.1542 46.0272 79.6206C45.8905 79.3088 45.811 79.1367 45.7389 78.9621C45.0653 77.3658 44.3744 75.7744 43.7356 74.1631C43.5968 73.7379 43.2955 73.3853 42.8979 73.1828C42.1249 72.7937 41.3867 72.3273 40.5963 71.9806C38.583 71.1001 36.6592 68.2691 37.385 65.1786C38.4003 66.5011 39.5931 67.6763 40.9294 68.6707C41.5483 69.1371 41.9485 69.8979 42.4754 70.5588L41.0611 63.2381L40.9716 64.141C40.226 63.5798 39.4803 63.066 38.7794 62.4973C37.4297 61.3948 36.7412 59.9057 36.5424 58.2096C36.4355 57.3091 36.4281 56.3813 36.791 55.5083C36.8974 55.301 37.0187 55.1018 37.1538 54.9121C37.5789 56.3788 38.4215 57.4588 39.274 58.5164C40.1395 59.5308 40.7241 60.7557 40.9692 62.0683C40.9692 61.759 40.9692 61.4497 40.9692 61.1429C40.8996 59.6463 40.8175 58.1672 40.7554 56.6781C40.7406 56.3221 40.6289 55.977 40.4323 55.6804C39.7636 54.5402 39.3695 53.259 39.2815 51.9389C39.2019 50.9537 39.1348 49.9435 39.5499 48.9932C39.9998 47.968 40.5441 46.9977 41.6477 46.5288C41.9211 47.6862 42.2691 48.7961 42.4331 49.931C42.7289 51.9739 42.6817 53.9917 41.3544 55.8325C41.1581 55.3661 41.2103 54.8972 41.2053 54.4407C41.2003 53.9843 41.2053 53.5353 41.1581 53.0838C40.8598 56.3538 41.1183 59.5964 41.6328 62.8964C41.7764 62.5773 41.8824 62.2424 41.9485 61.8987C42.028 60.7039 42.6941 59.8384 43.395 58.9454C44.0463 58.1098 44.5906 57.1994 45.1648 56.3339C46.3031 58.1572 45.4009 60.9034 44.2302 62.1181C43.724 62.6054 43.185 63.0571 42.6171 63.4701C42.1647 63.8292 41.859 64.2183 42.0081 64.8469C42.5798 67.2514 43.0943 69.6709 44.0562 71.9606C44.1151 72.041 44.1799 72.1169 44.2501 72.1876C43.9394 70.0899 44.4166 68.2965 45.3785 66.5829C45.6842 66.0367 45.7414 65.3508 45.9378 64.6449C46.6412 65.0415 46.7978 65.7349 46.8972 66.326C47.1134 67.5906 47.1731 68.8951 46.6113 70.1049C46.3262 70.6536 45.9935 71.1761 45.6171 71.6663C45.2418 72.2076 44.8342 72.7239 44.4589 73.2252C45.4363 75.7805 46.6767 78.2265 48.1598 80.5235C48.105 80.2861 48.066 80.0453 48.043 79.8027C48.0231 79.2265 47.8914 78.6029 48.0629 78.0841C48.5739 76.655 48.7962 75.1381 48.7166 73.6218C49.0037 73.8484 49.2714 74.0987 49.5169 74.3701C50.7398 76.0737 51.0431 77.9045 50.2054 79.8576C49.9972 80.3528 49.7564 80.8336 49.4846 81.2968C49.1292 81.8979 49.1143 82.4367 49.5443 83.0178C50.6976 84.5867 51.8136 86.1806 52.9644 87.757C53.3669 88.3283 53.8607 88.8289 54.4259 89.2386C54.2121 88.7647 54.0207 88.2783 53.7747 87.8218C53.4908 87.3132 53.3523 86.7357 53.3745 86.1532C53.4217 84.7838 53.4839 83.4094 53.1781 82.065C53.1591 81.8401 53.1591 81.614 53.1781 81.3891C53.9661 81.8807 54.6216 82.559 55.087 83.3645C55.875 84.8062 56.1906 86.3028 55.6761 87.8992C55.4276 88.6724 55.2237 89.4631 55 90.2388C56.8394 92.2343 58.5718 94.2297 60.6621 95.8684L61.204 96.3748Z" fill="black"/>
<path d="M86.7282 95.6088C86.9699 95.4642 87.2016 95.3034 87.4216 95.1274C89.1292 93.5759 90.8169 92.002 92.1889 90.1263L92.7631 89.5925C94.7382 87.3068 96.5293 84.8672 98.1194 82.2967C97.7665 81.5484 97.4036 80.8575 97.0954 80.1367C96.3248 78.3233 96.3373 76.5299 97.3588 74.8089C97.6846 74.3429 98.0374 73.8965 98.4152 73.4719C98.3555 75.193 98.7035 76.5349 99.0987 77.8893C99.3075 78.6126 99.136 79.4482 99.2926 80.2913C99.6058 79.765 99.9537 79.2537 100.222 78.7049C100.985 77.146 101.691 75.5596 102.459 74.0057C102.592 73.7711 102.648 73.5006 102.62 73.2322C102.592 72.9637 102.481 72.7109 102.303 72.5091C102.078 72.2116 101.828 71.9337 101.557 71.6785C99.9289 70.142 99.5287 66.4679 101.192 64.6321C101.276 64.8392 101.348 64.9963 101.405 65.1584C101.679 65.9342 101.858 66.7623 102.235 67.4831C102.892 68.7303 103.297 69.9924 103.143 71.4091C103.152 71.5666 103.181 71.7224 103.227 71.8731C104.174 69.486 104.699 67.0865 105.323 64.7169C105.364 64.5313 105.35 64.3374 105.282 64.1599C105.214 63.9823 105.095 63.829 104.94 63.7192C104.634 63.4473 104.259 63.2553 103.923 63.0108C101.835 61.4918 100.993 58.5386 102.039 56.159C102.196 56.4558 102.288 56.7028 102.444 56.9223C102.946 57.7298 103.488 58.5115 104.067 59.2644C104.85 60.1807 105.317 61.3257 105.4 62.5294C105.423 62.6533 105.459 62.7745 105.506 62.8911C106.071 60.6662 106.091 58.4313 106.23 56.2089C106.214 55.9309 106.117 55.6637 105.951 55.4407C104.855 53.7894 104.661 51.9886 105.037 50.0929C105.268 48.9281 105.534 47.7682 105.782 46.541C107.038 47.0798 107.771 48.1548 108.064 49.4593C108.494 51.3001 108.154 53.6996 106.978 55.6951L106.67 54.9618C106.555 57.057 106.446 59.0324 106.339 61.0054L106.471 61.0279C106.63 60.5697 106.82 60.123 107.04 59.6909C107.313 59.232 107.699 58.8404 107.997 58.3939C108.73 57.3064 109.441 56.2039 110.202 55.0441C110.35 55.3095 110.467 55.5917 110.55 55.8846C110.955 58.4488 110.378 61.1227 107.843 62.8687C107.268 63.3132 106.717 63.7887 106.192 64.2929L106.031 64.1033L104.669 70.7731L104.761 70.8105C104.937 70.4253 105.14 70.0528 105.367 69.6956C105.68 69.2605 106.033 68.857 106.424 68.4908C107 67.957 107.649 67.4931 108.216 66.9643C108.782 66.4355 109.262 65.8394 109.784 65.2732C110.361 68.1017 109.096 70.6359 106.779 71.8855C105.802 72.4143 104.815 72.9281 103.796 73.4694L101.341 79.4557L106.704 76.1134C106.767 78.8571 104.803 81.4162 101.85 82.1346C101.768 82.1545 101.686 82.157 101.602 82.1745C100.145 82.5112 99.0067 83.1722 98.2462 84.6014C97.4856 86.0307 96.3969 87.3452 95.4524 88.6946C95.532 88.722 95.6239 88.7844 95.6537 88.7619C96.6512 88.0222 97.7984 87.5113 99.0142 87.2653C100.219 87.0143 101.348 86.4848 102.313 85.7189C102.233 86.123 102.211 86.33 102.148 86.5246C101.286 89.1336 98.6861 90.9469 96.1409 90.902C95.4474 90.8896 94.754 91.0292 94.058 91.0841C93.8948 91.0762 93.733 91.0494 93.5758 91.0043L89.6959 95.282C90.5882 95.0825 91.391 94.8455 92.2088 94.7333C93.6821 94.5634 95.124 94.1847 96.4914 93.6083C96.0106 95.0367 95.0293 96.2413 93.7299 96.9981C92.2386 97.9135 90.628 98.0881 88.9577 97.7289C88.4794 97.5997 87.9759 97.5975 87.4966 97.7226C87.0173 97.8477 86.5786 98.0957 86.2236 98.4423C84.6751 99.8117 83.0197 101.054 81.3992 102.341C81.1008 102.596 80.7437 102.771 80.3605 102.852C79.9772 102.933 79.5798 102.917 79.2044 102.805C78.9434 101.74 78.931 101.722 79.7662 101.198C81.813 99.8707 83.7693 98.4075 85.6221 96.8185C85.741 96.7033 85.8499 96.5781 85.9477 96.4444L86.7282 95.6088Z" fill="black"/>
<path d="M102.509 23.6733L104.092 24.6935C103.866 25.7511 103.637 26.7837 103.424 27.8214C103.21 28.859 103.023 29.8168 102.78 31.0639C104.818 29.8866 106.369 28.41 108.191 27.3225L109.257 28.0384C108.892 28.3776 108.469 28.6345 108.238 29.0111C107.313 30.5277 106.431 32.0716 105.571 33.6281C105.372 33.9897 105.322 34.4387 105.188 34.9301C104.562 34.743 104.027 34.2092 103.297 33.7328C104.323 33.7179 104.331 33.7204 104.751 33.0095C105.508 31.7274 106.26 30.4429 107.005 29.1558C107.058 28.9739 107.09 28.7864 107.1 28.5971L101.41 32.6877C101.922 30.2308 102.38 28.0433 102.882 25.6413C101.813 27.1379 100.871 28.425 99.9388 29.732C99.6306 30.166 99.3795 30.6274 99.5287 31.2859C99.0937 31.0165 98.6612 30.7447 98.0249 30.3456C99.0191 30.2658 99.4441 29.6946 99.8642 29.1159C100.689 27.9785 101.507 26.8336 102.35 25.6987C103.018 24.7658 103.023 24.7708 102.509 23.6733Z" fill="black"/>
<path d="M51.3264 132.791L49.4871 132.103C50.5136 132.068 50.7646 131.564 50.9411 130.951C51.3984 129.367 51.8856 127.793 52.3529 126.211C52.5244 125.633 52.6014 125.069 52.0596 124.53L54.5277 125.366C53.9909 125.573 53.5658 125.615 53.4242 126.114C52.9643 127.74 52.4498 129.357 51.9651 130.966C51.9453 131.028 52.0124 131.115 52.0671 131.272L56.6703 125.927V132.871L56.8592 132.919C56.971 132.694 57.1077 132.475 57.1947 132.243C57.6918 131.063 58.1467 129.868 58.6861 128.706C58.9943 128.037 59.0315 127.459 58.3182 126.733L60.4657 127.451C60.0282 127.755 59.6132 127.93 59.3746 128.239C59.1359 128.549 58.9943 129.055 58.8203 129.471L56.9188 134.048L57.7937 135.084L55.9569 134.423C55.8525 132.233 55.7506 130.09 55.6413 127.768L51.3264 132.791Z" fill="black"/>
<path d="M115.421 119.858L113.542 121.784C113.597 120.903 113.607 120.893 112.948 120.23C111.839 119.115 110.711 118.012 109.6 116.905C108.894 116.207 108.892 116.207 107.9 116.184L108.986 115.039L109.732 115.483C109.766 115.379 109.786 115.271 109.794 115.162C109.742 114.214 110.184 113.52 110.848 112.884C111.673 112.094 113.684 112.034 114.499 112.884C115.444 113.882 116.453 114.797 117.41 115.77C117.847 116.217 118.287 116.518 119.149 116.005C118.57 117.002 117.867 117.466 117.223 118.197C117.308 117.164 117.318 117.154 116.726 116.558C115.732 115.561 114.733 114.57 113.729 113.585C113.204 113.086 112.59 112.764 111.835 112.944C110.241 113.326 109.555 115.219 110.634 116.436C111.673 117.616 112.839 118.681 113.947 119.798C114.347 120.19 114.777 120.1 115.421 119.858Z" fill="black"/>
<path d="M86.8696 25.9555C87.4512 25.8507 87.7943 25.6088 87.9608 25.1199C88.5971 23.2492 89.2458 21.3784 89.8374 19.5027C89.9169 19.2533 89.7007 18.9166 89.6012 18.5449C89.844 18.5817 90.084 18.635 90.3196 18.7046C91.2467 19.0313 92.1787 19.3481 93.0885 19.7222C94.6543 20.3658 95.4 21.6578 95.6386 23.2566C95.9816 25.5364 93.5383 27.911 91.269 27.467C90.1903 27.2575 89.1514 26.8384 88.1025 26.4892C87.6799 26.3471 87.2797 26.1351 86.8696 25.9555ZM90.9484 19.5601C90.2897 21.4383 89.6435 23.2566 89.0171 25.085C88.9388 25.3262 88.9175 25.5824 88.955 25.8332C88.9889 26.035 89.0907 26.2189 89.2433 26.3546C90.4041 27.2874 92.4248 27.1877 93.4389 26.0727C93.8443 25.6324 94.152 25.1109 94.3418 24.5425C94.5316 23.9741 94.5992 23.3718 94.54 22.7752C94.3934 21.1689 93.6651 19.9093 90.9484 19.5601Z" fill="black"/>
<path d="M23.2548 61.9634C23.1877 61.1927 22.6807 60.9208 22.0842 60.7163C20.6152 60.195 19.1487 59.6662 17.6997 59.095C17.4105 58.9601 17.0913 58.9032 16.7736 58.9299C16.4558 58.9566 16.1505 59.0659 15.8877 59.2471C16.3624 58.0374 16.7626 56.7927 17.3318 55.6329C17.574 55.1055 17.9246 54.6354 18.3607 54.2537C18.7968 53.8719 19.3085 53.5871 19.8621 53.418C22.288 52.6697 24.8605 54.3359 25.0594 56.8676C25.0678 57.4442 24.9639 58.017 24.7536 58.5537C24.3733 59.6786 23.916 60.7786 23.4885 61.8886L23.2548 61.9634ZM23.235 60.1126C24.7114 58.8406 24.8605 56.9499 23.7047 55.573C23.0759 54.8247 22.2134 54.5604 21.3459 54.3259C19.1835 53.7647 17.133 55.4907 17.21 57.8379L23.235 60.1126Z" fill="black"/>
<path d="M15.7409 93.5485C15.5445 92.5134 15.3308 91.4783 15.1543 90.4406C15.0027 89.5327 15.4924 88.8867 16.2107 88.5026C16.8669 88.1509 17.5728 88.2881 18.1693 88.7919C18.2861 88.8917 18.4178 88.9765 18.48 89.0289C18.6813 88.5175 18.7857 87.9663 19.0815 87.5497C19.9514 86.3201 21.5471 86.3525 22.4071 87.5946C22.6216 87.9432 22.777 88.325 22.867 88.7246C23.1379 89.7048 23.3641 90.6975 23.5579 91.7651C23.0136 91.0168 22.345 91.2238 21.6838 91.3934C20.1826 91.79 18.6838 92.224 17.1502 92.5383C16.5114 92.673 16.0814 92.8651 16.0417 93.6283L15.7409 93.5485ZM19.1958 90.8048C19.4158 90.8422 19.6394 90.853 19.8619 90.8372C20.5778 90.6776 21.2886 90.493 21.997 90.3084C22.1182 90.2846 22.2282 90.2215 22.3102 90.1288C22.4584 89.9508 22.5593 89.738 22.6035 89.5103C22.6245 89.0516 22.4647 88.603 22.1586 88.2618C21.8525 87.9205 21.4248 87.714 20.968 87.6869C20.7326 87.6799 20.4982 87.7196 20.2781 87.8036C20.058 87.8876 19.8566 88.0142 19.6853 88.1764C19.514 88.3385 19.3763 88.533 19.2799 88.7486C19.1836 88.9642 19.1305 89.1967 19.1237 89.4329C19.1138 89.8744 19.1685 90.3184 19.1958 90.8148V90.8048ZM15.9447 91.79C16.9688 91.5007 17.9754 91.4134 18.8727 90.9669C18.4079 89.5626 17.7542 89.1062 16.7774 89.4429C15.8006 89.7796 15.4924 90.6152 15.9447 91.79Z" fill="black"/>
<path d="M18.5744 66.5978C19.4792 66.8074 20.2323 67.0119 20.9954 67.1516C21.4626 67.2389 21.9747 67.3112 22.4096 66.7999C22.268 67.5482 22.1288 68.2964 21.9548 69.2193C21.664 68.8028 21.5298 68.471 21.2837 68.2989C20.9911 68.1493 20.6734 68.0554 20.3466 68.0221C18.7037 67.6629 17.0558 67.3137 15.4104 66.962C14.8909 66.8498 14.518 67.0293 14.2223 67.5332C14.1961 67.2361 14.1961 66.9373 14.2223 66.6402C14.3416 65.9917 14.5131 65.3557 14.6523 64.7121C14.8834 63.6421 15.4924 63.0335 16.4419 62.9312C17.6374 62.8015 18.2165 63.1607 18.7211 64.3405C18.783 64.442 18.8546 64.5372 18.9349 64.6248C20.2 63.5822 22.0592 63.8017 23.4088 62.2603C23.2647 62.8265 23.1429 63.0958 23.1404 63.3627C23.1404 63.8616 22.867 64.111 22.4345 64.2582C21.7733 64.4827 21.1122 64.7121 20.4461 64.9541C19.678 65.231 18.9597 65.6001 18.5744 66.5978ZM18.0351 66.4956C18.5943 65.6974 18.4179 65.0414 17.9879 64.4527C17.6175 63.9539 16.5761 63.7868 15.9348 64.0586C15.2165 64.3629 14.9779 64.8069 15.0077 65.9044L18.0351 66.4956Z" fill="black"/>
<path d="M105.168 118.23L107.234 116.686C107.206 117.107 107.124 117.411 107.189 117.683C107.284 117.958 107.43 118.212 107.619 118.432C108.549 119.701 109.473 120.971 110.425 122.22C110.796 122.704 111.148 123.283 112.003 123.218C111.124 123.842 110.264 124.518 109.351 125.071C108.519 125.57 107.664 125.393 106.955 124.77C106.756 124.62 106.596 124.424 106.489 124.199C106.382 123.973 106.331 123.725 106.341 123.475C106.371 123.034 106.438 122.595 106.493 122.096C104.945 121.931 103.66 120.724 101.771 120.821L103.073 119.823C103.95 120.163 104.865 120.512 105.775 120.868C106.52 121.16 107.266 121.265 108.116 120.806C107.582 120.07 107.065 119.399 106.595 118.693C106.257 118.152 105.718 118.322 105.168 118.23ZM108.399 121.155C107.624 121.597 107.085 122.091 107.157 122.931C107.193 123.285 107.334 123.619 107.563 123.891C107.791 124.163 108.096 124.36 108.437 124.455C109.2 124.705 109.858 124.47 110.378 123.802L108.399 121.155Z" fill="black"/>
<path d="M41.7571 127.241L42.1448 127.937C42.0255 127.965 41.9236 128.022 41.8789 127.992C41.1506 127.523 40.4174 127.064 39.7164 126.558C39.2269 126.236 38.8825 125.735 38.757 125.161C38.4637 123.615 39.5027 122.515 41.2749 122.622C41.1158 121.033 41.4911 119.442 41.0089 117.673L42.2318 118.467C42.2318 119.714 42.2318 120.918 42.2318 122.118C42.2442 122.914 42.2641 122.914 43.0545 123.545C43.4597 122.984 43.8748 122.43 44.2675 121.859C44.777 121.11 44.7646 121.11 44.5384 120.078L46.7008 121.617C45.5997 121.492 45.2791 122.116 44.8889 122.697C43.8847 124.216 42.8358 125.688 41.7571 127.241ZM42.7861 124.011C41.2525 123.078 40.6137 123.101 40.0147 124.011C39.269 125.146 39.4729 125.84 40.8548 126.755C41.4812 125.875 42.1075 124.979 42.7886 124.011H42.7861Z" fill="black"/>
<path d="M53.9188 27.9909L52.7357 28.7966C51.0107 28.2977 50.0016 26.5193 47.9709 26.8012C47.9768 27.0404 48.0144 27.2778 48.0827 27.5071C48.3313 28.0708 48.6668 28.5996 48.9079 29.1683C48.9917 29.4247 49.158 29.6459 49.3807 29.7972C49.6034 29.9484 49.8699 30.0211 50.1383 30.0038L47.9883 31.0764L47.864 30.9267C47.9976 30.7724 48.102 30.5949 48.1722 30.4029C48.1813 30.1999 48.1331 29.9984 48.033 29.8218C47.1854 28.0333 46.3478 26.24 45.4555 24.474C45.3163 24.2021 44.9136 24.0649 44.5657 23.8155C45.3909 23.4039 46.231 22.935 47.1134 22.5684C47.9957 22.2017 49.0595 22.4137 49.5765 23.0996C50.0935 23.7856 50.4092 24.5339 49.7281 25.5939L49.5765 25.8434C50.5036 26.4046 51.4307 26.9384 52.328 27.517C52.7995 27.8544 53.3672 28.0294 53.9461 28.0159L53.9188 27.9909ZM47.608 26.5467C48.4779 26.1901 49.1689 25.761 49.1565 24.9329C49.1607 24.5774 49.0644 24.2279 48.8788 23.9251C48.6931 23.6222 48.4257 23.3784 48.1076 23.2219C47.3893 22.8602 46.7853 22.9999 46.1639 23.5711C46.6461 24.5613 47.1109 25.5191 47.608 26.5467Z" fill="black"/>
<path d="M89.2733 126.738C88.9825 127.207 88.7613 127.439 88.8881 127.903C89.3852 129.728 89.7729 131.587 90.2725 133.413C90.3769 133.794 90.7696 134.093 91.0754 134.47C90.2676 134.677 89.3579 134.862 88.4805 135.149C87.6031 135.435 86.6262 135.049 86.0471 134.131C85.5227 133.303 85.6594 132.505 86.4199 131.672C86.5315 131.566 86.6485 131.466 86.7704 131.372C85.212 130.644 84.5334 128.878 82.8308 128.379C83.6535 127.86 84.352 127.81 85.0429 128.601C85.5574 129.138 86.1018 129.645 86.6735 130.12C87.1457 130.552 87.6528 130.883 88.4133 130.716C88.6743 130.045 88.2319 129.452 88.1026 128.843C87.9734 128.234 88.0679 127.406 86.753 127.481C87.523 127.037 88.3866 126.783 89.2733 126.738ZM88.6718 131.228C87.4415 131.437 86.9643 131.764 86.7878 132.422C86.6312 133.013 87.0364 134.103 87.5881 134.383C88.212 134.695 88.8806 134.947 89.4871 134.253C89.2162 133.26 88.9527 132.273 88.6718 131.238V131.228Z" fill="black"/>
<path d="M45.4979 30.7371C45.4979 33.0543 43.497 35.0322 41.2352 34.9774C39.033 34.9125 37.057 32.9171 37.0421 30.7196C37.0296 28.799 38.6527 26.4095 41.3918 26.4219C43.594 26.4194 45.8434 28.6369 45.4979 30.7371ZM44.7522 31.3407C44.8417 30.2557 44.28 29.3777 43.6387 28.562C43.1565 27.9484 42.6147 27.3847 41.8168 27.1278C41.3663 26.9806 40.8879 26.9402 40.4192 27.0097C39.9504 27.0791 39.5041 27.2566 39.1152 27.5283C38.7264 27.7999 38.4055 28.1582 38.1777 28.5751C37.95 28.9921 37.8216 29.4563 37.8026 29.9314C37.8026 31.5402 39.3238 33.6279 40.8226 34.1717C41.2711 34.3307 41.7512 34.3787 42.2221 34.3117C42.6931 34.2446 43.1409 34.0645 43.5277 33.7866C43.9144 33.5087 44.2286 33.1412 44.4435 32.7154C44.6584 32.2896 44.7677 31.818 44.7622 31.3407H44.7522Z" fill="black"/>
<path d="M21.8852 81.6508C22.0293 83.9181 19.8967 85.9235 17.6598 85.8911C15.7434 85.8737 13.4343 84.2274 13.4343 81.5785C13.4343 79.2862 15.2861 77.3955 17.7119 77.3556C19.6581 77.3357 22.0741 79.1066 21.8852 81.6508ZM13.919 81.5186C13.919 83.1075 14.615 84.0877 15.9721 84.5592C17.4311 85.058 18.813 84.7812 20.1254 84.1002C21.1992 83.544 21.6167 82.4964 21.5297 81.4014C21.4427 80.3064 20.9929 79.366 19.8669 78.8447C18.3458 78.1388 16.8594 78.3459 15.4799 79.0518C14.4981 79.5431 13.8047 80.4236 13.919 81.5186Z" fill="black"/>
<path d="M27.2837 40.7145C29.6748 40.7145 31.5564 42.5428 31.534 44.9199C31.5141 46.9428 30.0427 49.0978 27.2613 49.1876C25.176 49.2525 23.0782 47.3893 23.0359 44.9124C23.0086 42.8596 25.1039 40.3928 27.2837 40.7145ZM26.712 41.4628C25.4941 41.4354 24.5496 41.9218 23.9779 43.0093C23.6963 43.4902 23.5611 44.0433 23.5889 44.6004C23.6168 45.1576 23.8064 45.6943 24.1345 46.1446C24.8653 47.2196 25.8968 47.8058 27.0849 48.2523C27.9101 48.5591 28.6284 48.392 29.3392 48.0602C30.4453 47.5489 31.2506 45.9226 30.9822 44.8625C30.5522 43.1789 28.442 41.4927 26.712 41.4553V41.4628Z" fill="black"/>
<path d="M123.725 62.607C123.745 60.17 125.537 58.4365 127.976 58.4165C128.536 58.4142 129.091 58.5254 129.607 58.7434C130.124 58.9615 130.591 59.2819 130.981 59.6855C131.371 60.0892 131.676 60.5676 131.878 61.0924C132.079 61.6171 132.173 62.1772 132.154 62.7392C132.089 65.5752 129.877 66.9645 127.844 66.9271C125.463 66.8922 123.705 65.0763 123.725 62.607ZM127.309 65.9194C128.472 65.9277 129.606 65.5574 130.541 64.8643C131.44 64.1709 131.952 63.1931 131.696 62.0407C131.44 60.8884 130.866 59.9979 129.653 59.6163C127.958 59.08 125.572 59.8183 124.573 61.27C124.189 61.7658 124.011 62.3914 124.076 63.016C124.389 65.0214 125.674 66.0067 127.309 65.9294V65.9194Z" fill="black"/>
<path d="M27.7636 101.655C27.9599 102.079 28.1637 102.513 28.3924 103.002C27.5299 102.825 27.515 102.79 26.8116 103.124C25.3203 103.833 23.8513 104.571 22.3873 105.327C22.1502 105.47 21.9621 105.682 21.848 105.935C21.7071 106.306 21.5958 106.687 21.5149 107.075L20.8314 105.758L24.0104 97.8763C23.74 97.9265 23.474 97.9983 23.215 98.0909C21.9896 98.677 20.7742 99.2831 19.5488 99.8718C18.9821 100.144 18.6217 100.52 18.6764 101.264L17.6101 99.2682L18.6739 99.8244L25.6334 96.4771C24.4752 99.3629 23.4114 102.009 22.2481 104.9C23.9582 104.05 25.4595 103.331 26.9259 102.551C27.259 102.364 27.4727 101.972 27.7636 101.655Z" fill="black"/>
<path d="M85.1846 25.7784C84.3271 24.6311 83.6188 23.3939 82.8507 22.2016C82.0827 21.0094 81.2997 19.7847 80.4373 18.4402C80.1241 20.2012 79.8432 21.7651 79.5748 23.3291C79.4754 23.8977 79.5375 24.4141 80.1465 24.8007L78.0859 24.4664C78.9708 24.1871 79.1323 23.6358 79.2318 23.1071C79.5251 21.5706 79.7562 20.0241 80.0147 18.4826C80.0724 18.2393 80.0611 17.9847 79.982 17.7475C79.903 17.5104 79.7593 17.3002 79.5673 17.1407L78.9087 16.587C79.9774 16.4648 80.5864 16.7641 81.0611 17.5348C82.3785 19.6824 83.7505 21.7951 85.1822 24.0474C85.3711 23.132 85.56 22.3488 85.6793 21.5531C85.8185 20.6976 85.903 19.837 86.0074 18.9765C86.0695 18.4627 85.9875 17.9788 85.3139 17.5498L87.5857 17.889C86.2509 18.2956 86.4448 19.3631 86.2808 20.1837C85.9229 21.9572 85.7091 23.7606 85.4282 25.5515C85.4307 25.6088 85.3288 25.6537 85.1846 25.7784Z" fill="black"/>
<path d="M99.5485 131.2C99.2999 130.729 99.0315 130.202 98.7307 129.629C99.2403 129.8 99.76 129.94 100.287 130.048C102.123 130.297 104.385 128.082 103.416 125.755C103.097 124.902 102.602 124.126 101.964 123.478C101.057 122.61 99.8765 122.201 98.4474 122.879C96.7646 123.682 96.6727 123.959 97.5625 125.55C97.8111 125.999 98.0994 126.336 98.9445 126.344L96.5061 127.668C97.0157 126.635 97.0182 126.635 96.6031 125.825C96.3794 125.383 96.1482 124.944 95.9245 124.505C95.9103 124.466 95.9036 124.425 95.9047 124.383C97.2841 122.303 100.471 121.412 102.29 122.495C104.907 124.049 105.255 127.982 102.571 129.748C102.038 130.053 101.485 130.321 100.916 130.551L99.5485 131.2Z" fill="black"/>
<path d="M117.541 35.4463L119.383 37.6537C118.451 37.6288 118.416 37.6163 118.222 38.1526C117.946 38.9159 117.725 39.7016 117.477 40.5247C118.409 40.5047 119.217 40.5047 120.022 40.4598C120.666 40.4249 120.718 40.3326 120.768 39.3648L122.184 41.0784C121.242 40.7587 120.229 40.7061 119.259 40.9263C118.712 41.0585 118.108 40.9487 117.457 40.9487C117.313 41.237 117.185 41.5326 117.072 41.8342C116.811 42.6548 116.592 43.4929 116.326 44.311C116.1 44.987 115.923 45.6455 116.189 46.4112L114.26 44.1239L115.282 44.2237C115.622 43.2085 115.956 42.2058 116.318 41.1233C115.414 41.1607 114.579 41.1832 113.743 41.2355C113.023 41.278 112.96 41.3652 112.876 42.3704L111.407 40.6095C113.065 41.4176 114.708 40.4748 116.378 40.7417C116.793 39.4122 117.208 38.2125 117.531 36.9853C117.641 36.5463 117.541 36.0474 117.541 35.4463Z" fill="black"/>
<path d="M86.728 95.6087L85.9575 96.4318C85.9277 96.4044 85.8705 96.3795 85.868 96.352C85.7437 95.0924 85.4554 93.8228 85.5399 92.5782C85.6816 90.473 87.0114 89.0861 88.9526 87.9712C88.8681 88.3603 88.8233 88.5623 88.7836 88.7619C88.6046 89.6873 88.3163 90.6077 88.2865 91.538C88.2647 92.6099 87.9274 93.6513 87.3171 94.5312C87.0995 94.8783 86.9028 95.2381 86.728 95.6087Z" fill="black"/>
<path d="M61.2041 96.3745L60.6548 95.8756C60.4236 95.4516 60.2223 95.0026 59.9514 94.6035C59.2834 93.6102 58.911 92.4466 58.8776 91.2487C58.8304 90.2385 58.5396 89.2408 58.3457 88.1782C59.1709 88.3778 59.8122 88.9764 60.3988 89.6349C61.6863 91.0816 61.8901 92.8326 61.5496 94.6235C61.4402 95.1997 61.6639 95.8681 61.2041 96.3745Z" fill="black"/>
<path d="M92.7629 89.5925L92.1888 90.1263C91.6618 88.4501 91.1597 86.749 91.4853 84.9806C91.7712 83.4316 92.6635 82.2518 94.0977 81.4062C94.0082 82.9028 93.5831 84.2473 93.9286 85.6465C94.1324 86.4771 93.6801 87.2454 93.3893 88.0161C93.1904 88.5474 92.6834 88.954 92.7629 89.5925Z" fill="black"/>
<path d="M77.4197 24.4666H75.1131C75.5729 24.1075 75.809 23.7657 75.5779 23.2045C75.3293 22.6009 75.1702 21.9574 74.9614 21.3139H72.3839C72.1086 21.9844 71.8729 22.6707 71.678 23.3692C71.6109 23.656 71.8446 24.0127 71.9664 24.4267C71.4916 24.5539 70.9523 24.5115 70.1892 24.4043C71.1983 23.7583 71.3599 22.8229 71.6482 21.9399C72.1727 20.3361 72.7394 18.7472 73.2837 17.1534C73.3359 16.9962 73.3235 16.7917 73.4229 16.6844C73.5674 16.5069 73.764 16.3795 73.9846 16.3203C74.099 16.3028 74.3177 16.5323 74.3798 16.6919C74.703 17.5375 74.9987 18.3955 75.292 19.2511C75.7195 20.4982 76.1073 21.7454 76.5746 22.9925C76.8156 23.5062 77.0983 23.9993 77.4197 24.4666ZM72.5306 20.7252H74.7303C74.3798 19.6551 74.0493 18.6425 73.6466 17.4078L72.5306 20.7252Z" fill="black"/>
<path d="M133.692 77.3658C132.246 77.8647 130.779 78.386 129.313 78.8948C128.691 79.1118 128.07 79.3238 127.446 79.5234C126.785 79.7354 126.131 79.9474 125.659 80.8927C125.513 80.0452 125.501 79.1798 125.624 78.3286L126.37 78.8274L128.739 78.0492V75.4626C128.344 75.318 127.966 75.1758 127.583 75.0411C127.237 74.9189 126.887 74.7917 126.467 74.662L125.771 75.0985V73.3325C125.931 73.6068 126.145 73.8462 126.399 74.0364C126.653 74.2266 126.942 74.3638 127.25 74.44C129.164 75.0536 131.06 75.732 132.967 76.3631C133.372 76.5028 133.789 76.5751 133.692 77.3658ZM132.611 76.7397L129.313 75.6048V77.8347L132.611 76.7397Z" fill="black"/>
<path d="M31.9317 108.115C32.3468 108.704 32.6774 109.178 33.1919 109.906C32.0261 109.325 31.1637 109.657 30.2788 109.951C28.6359 110.483 26.9805 110.964 25.3301 111.468C24.9324 111.588 24.5273 111.757 24.1743 111.193C24.3061 110.966 24.4428 110.682 24.6217 110.428C25.8496 108.704 27.0923 107.006 28.2804 105.26C28.5563 104.858 28.6806 104.352 28.9142 103.798C29.3716 104.449 29.8364 105.107 30.4826 106.02L29.4163 105.521L27.751 107.679L29.1976 109.814C29.8115 109.637 30.4031 109.487 30.9797 109.3C31.6981 109.068 31.6956 109.056 31.9317 108.115ZM27.4577 108.148L25.6234 110.695L25.7452 110.879L28.7775 109.981L27.4577 108.148Z" fill="black"/>
<path d="M21.388 75.0136V77.024C20.6423 75.8168 19.5462 75.6047 18.5843 75.1782C17.1924 74.5596 15.7781 73.9959 14.3763 73.4048C14.1444 73.3165 13.9207 73.208 13.7077 73.0805C13.6342 73.0403 13.5735 72.9801 13.5326 72.9069C13.4917 72.8336 13.4722 72.7503 13.4764 72.6664C13.4805 72.5825 13.5082 72.5016 13.5561 72.4327C13.6041 72.3639 13.6704 72.3101 13.7474 72.2774C13.8588 72.2261 13.9755 72.1876 14.0954 72.1626C16.0416 71.6638 17.9853 71.1474 19.934 70.6536C20.6175 70.4815 21.306 70.3418 21.813 69.5361C21.8801 70.5339 21.9895 71.337 21.5197 72.1053C21.1568 71.3769 21.1071 71.332 20.5429 71.4742C19.9066 71.6338 19.2778 71.8234 18.6141 72.0105C18.2314 72.8286 18.4774 73.6991 18.3382 74.6769C19.3871 74.7542 20.1527 75.9864 21.388 75.0136ZM18.0251 72.1876L14.5776 73.0456L17.8337 74.385L18.0251 72.1876Z" fill="black"/>
<path d="M114.087 32.1564C113.187 34.309 112.287 36.4766 111.37 38.6416C111.159 39.1405 110.977 39.6269 111.31 40.228C110.748 40.1856 110.564 39.7765 110.264 39.5296C109.963 39.2826 109.66 38.9858 109.314 38.6715C110.179 38.6715 110.281 38.6466 110.577 38.028C110.843 37.4693 111.059 36.8881 111.323 36.2421L109.434 34.4961C108.514 35.0623 107.418 35.3566 106.906 36.5589L105.723 35.419C106.195 35.419 106.498 35.4764 106.767 35.404C107.079 35.2993 107.377 35.1552 107.654 34.975C109.371 33.9922 111.086 32.997 112.804 32.0143C113.473 31.6376 113.475 31.6451 114.087 32.1564ZM111.526 35.7208C111.991 34.6283 112.414 33.6356 112.918 32.4458L109.995 34.1718C110.54 34.7131 110.987 35.1696 111.521 35.7208H111.526Z" fill="black"/>
<path d="M93.0737 133.802C92.9559 133.663 92.8534 133.511 92.768 133.35C92.7211 133.167 92.6936 132.98 92.686 132.791C93.7572 133.36 94.5476 132.719 95.4623 132.422C95.4623 131.235 94.7465 130.34 94.4805 129.304C92.7531 129.704 92.7083 129.733 92.2734 130.771C92.1143 130.469 91.9701 130.23 91.8608 129.975C91.7514 129.721 91.6644 129.434 91.5153 129.013L92.4623 129.454L94.1773 128.788C94.0132 127.843 93.618 127.042 93.2477 126.226C93.0215 125.728 92.7904 125.703 92.2236 125.912C91.4183 126.214 90.5658 126.463 90.2576 127.459C90.2352 127.097 90.2153 126.735 90.188 126.321C91.4971 125.712 92.8447 125.189 94.222 124.757C94.2817 125.296 94.2494 125.777 94.396 126.197C94.9577 127.79 95.5717 129.364 96.1732 130.936C96.382 131.487 96.5733 132.076 97.3911 132.108L93.0737 133.802Z" fill="black"/>
<path d="M45.4307 126.389C45.6121 126.017 45.7637 125.688 45.9278 125.371C46.0378 125.185 46.1572 125.005 46.2857 124.832C46.6038 125.945 46.6312 125.967 48.2344 126.556C48.7513 125.66 49.3628 124.81 49.5442 123.692C48.6544 122.986 47.8342 122.263 46.5417 122.927L47.2377 121.946C48.7041 122.547 50.0314 123.346 51.6818 124.191C50.7969 124.263 50.439 124.595 50.1557 125.134C49.4697 126.503 48.7265 127.84 48.0107 129.195C47.7099 129.761 47.4638 130.345 47.7099 131.19L43.6709 129.105L44.0338 128.142C44.1208 128.182 44.2227 128.204 44.2227 128.232C44.2385 128.46 44.3164 128.679 44.4479 128.865C44.5794 129.052 44.7595 129.199 44.9684 129.289C45.4356 129.539 45.9054 129.768 46.4299 130.038L47.9212 127.294C47.1034 126.361 46.5939 126.174 45.4307 126.389Z" fill="black"/>
<path d="M63.165 136.481C62.8991 136.069 62.6828 135.87 62.6356 135.635C62.4392 134.712 62.2976 133.777 62.1385 132.846C61.8899 131.47 61.6414 130.103 61.4376 128.716C61.3728 128.241 61.1247 127.81 60.7466 127.516L63.0333 127.855C62.0764 128.955 62.7102 130.045 62.8941 131.168C63.3912 131.23 63.8063 131.268 64.2089 131.332C64.5644 131.39 64.9148 131.48 65.3722 131.582C65.7177 130.549 66.8411 129.858 66.1999 128.481L68.0615 128.806C67.0425 129.225 66.7343 129.928 66.3788 130.584C65.5362 132.143 64.711 133.714 63.8734 135.276C63.6994 135.593 63.5031 135.904 63.165 136.481ZM65.1361 132.033L62.8991 131.604C63.0929 132.787 63.2719 133.864 63.4757 135.096L65.1361 132.033Z" fill="black"/>
<path d="M123.693 91.3687C123.873 91.976 124.253 92.5038 124.772 92.8652C126.474 94.1722 128.15 95.5142 129.835 96.8561C129.967 96.9584 130.106 97.0482 130.24 97.1454L129.887 97.8688C128.314 97.759 126.721 97.9611 125.117 97.7266C124.256 97.6264 123.386 97.6197 122.522 97.7067C122.122 97.7366 121.737 97.991 121.215 98.2055C121.516 97.355 121.799 96.5618 122.179 95.4842C122.252 96.0006 122.284 96.2201 122.324 96.5069C123.149 97.0931 124.113 96.7239 125.04 96.8935L125.987 94.4167C125.562 94.0725 125.098 93.7382 124.682 93.3491C124.22 92.9151 123.75 92.7106 123.005 93.2868L123.693 91.3687ZM129.134 96.8112L126.375 94.6661C126.114 95.4144 125.878 96.0779 125.615 96.8112H129.134Z" fill="black"/>
<path d="M125.657 87.8118C124.203 86.0982 124.747 83.9681 125.627 82.7234C126.559 81.4065 128.532 80.8602 130.18 81.3815C132.457 82.0999 133.842 84.6939 132.986 86.9263C132.854 87.2273 132.738 87.5354 132.639 87.8492C132.572 88.1895 132.526 88.5335 132.502 88.8794L130.648 88.5476C131.52 88.1136 132.164 87.6846 132.519 86.864C132.979 85.8064 132.733 84.0329 131.525 83.2223C130.968 82.8265 130.333 82.555 129.663 82.4259C128.993 82.2968 128.303 82.3132 127.64 82.474C125.567 82.9729 124.854 84.7538 125.44 86.7143C125.535 87.0261 125.657 87.3279 125.761 87.6372C125.768 87.6522 125.726 87.6946 125.657 87.8118Z" fill="black"/>
<path d="M53.9363 28.0208C54.5403 27.4346 54.7044 26.7337 54.682 25.8881C54.6224 24.0623 54.6696 22.2315 54.682 20.4007V19.4354C55.1791 19.1361 55.4674 19.2583 55.7707 19.6699C56.9265 21.2363 58.1344 22.7628 59.2902 24.3292C59.7252 24.9179 60.1154 25.5265 60.8685 25.8856L58.8428 26.5541L58.726 26.407L59.0963 25.9305C58.7658 25.1224 58.2065 24.434 57.4932 23.6857L55.1567 24.3616C54.8726 25.188 54.8858 26.0882 55.194 26.9058C55.2661 27.1203 55.5917 27.2475 55.8328 27.4421C55.2648 27.8152 54.5977 28.0074 53.9189 27.9933L53.9363 28.0208ZM55.1791 20.5703L54.9703 20.6751C54.9703 21.578 54.9703 22.4784 54.9703 23.3789C54.9918 23.507 55.0294 23.6319 55.0822 23.7505C55.8403 23.8054 56.4567 23.4687 57.1526 23.1594L55.1791 20.5703Z" fill="black"/>
<path d="M32.655 110.747C33.0875 110.804 33.5647 110.764 33.945 110.939C35.327 111.577 36.3237 112.605 36.535 114.181C36.7835 115.927 36.2019 117.361 34.6807 118.337C34.1973 118.656 33.655 118.875 33.0859 118.98C32.5168 119.086 31.9324 119.076 31.3672 118.951C30.802 118.825 30.2676 118.588 29.7955 118.252C29.3234 117.916 28.9232 117.489 28.6185 116.995C28.3003 116.439 27.8877 115.937 27.5 115.381L28.959 114.166C28.8198 114.775 28.6359 115.194 28.6583 115.603C28.7108 116.013 28.8489 116.407 29.0634 116.76C29.3597 117.362 29.8576 117.84 30.4698 118.11C31.082 118.38 31.7694 118.425 32.4114 118.237C33.0972 118.066 33.7337 117.737 34.2704 117.276C34.8072 116.814 35.2294 116.234 35.5034 115.581C36.3684 113.565 35.3543 112.051 33.7114 111.34C33.3783 111.193 33.0204 111.091 32.6724 110.989L32.655 110.747Z" fill="black"/>
<path d="M120.268 114.713L119.058 113.74C119.629 113.693 120.131 113.89 120.636 113.558C121.178 113.199 121.595 112.51 121.486 112.014C121.417 111.686 121.242 111.391 120.99 111.172C120.737 110.953 120.42 110.823 120.087 110.802C119.598 110.812 119.114 110.896 118.65 111.051C118.059 111.223 117.478 111.427 116.91 111.662C116.07 112.002 115.463 111.612 114.922 111.044C114.663 110.802 114.481 110.49 114.397 110.146C114.312 109.802 114.33 109.44 114.447 109.106C114.681 108.392 115.133 107.771 115.739 107.33C116.03 107.075 116.298 106.794 116.54 106.492C116.9 106.789 117.534 106.991 117.864 107.674C117.521 107.632 117.265 107.589 117.004 107.569C116.611 107.518 116.212 107.599 115.869 107.799C115.527 107.999 115.26 108.308 115.11 108.677C114.912 109.091 114.676 109.502 115.071 109.924C115.466 110.345 115.898 110.882 116.629 110.635C117.253 110.423 117.857 110.161 118.486 109.976C118.983 109.827 119.53 109.607 120.012 109.682C122.03 110.001 122.545 112.189 121.255 113.673C120.964 113.99 120.656 114.304 120.268 114.713Z" fill="black"/>
<path d="M84.1878 136.169L81.655 136.463C82.1521 135.61 82.1521 135.612 81.5283 134.907C81.0659 134.383 80.6086 133.856 80.0643 133.238C79.6343 134.086 79.2043 134.877 78.8364 135.695C78.6749 136.054 78.7469 136.443 79.3335 136.692L77.1736 137.037C78.6077 135.972 78.9408 134.305 79.7113 132.926C79.8065 132.652 79.8262 132.357 79.7685 132.073C79.7014 131.325 79.597 130.601 79.5199 129.863C79.4603 129.327 79.1247 129.037 78.6425 128.743L81.1281 128.444C80.5589 128.943 80.2954 129.284 80.5042 129.846C80.5541 130.128 80.5633 130.416 80.5316 130.701C80.5962 131.836 80.8199 132.891 81.7743 133.674C82.1173 133.956 82.3311 134.393 82.6468 134.715C83.1339 135.216 83.6534 135.672 84.1878 136.169Z" fill="black"/>
<path d="M35.3445 41.2582L33.6047 43.1014C33.6892 42.1636 33.2443 41.6947 32.7297 41.2332C31.5615 40.1856 30.4232 39.1006 29.2699 38.0305C28.7255 37.5317 28.7255 37.5317 27.8208 37.6414C28.733 36.3344 29.9012 35.3467 30.9774 34.1494L32.0239 35.0324C30.4704 34.7555 30.0006 35.7607 29.3618 36.5714C30.1075 37.3646 30.8399 38.1403 31.5591 38.8985C32.8913 37.9008 33.0902 37.5666 32.9882 36.514C33.1038 36.5381 33.2147 36.581 33.3163 36.6412C33.6519 36.943 33.9725 37.2623 34.4423 37.7163C33.1523 37.5741 32.772 38.5344 32.0313 39.158C32.6607 39.8078 33.3244 40.4231 34.0197 41.0012C34.3006 41.2232 34.8151 41.1559 35.3445 41.2582Z" fill="black"/>
<path d="M132.922 68.0195C133.228 68.6805 133.499 70.9229 133.456 72.5766L132.388 72.6938C132.388 72.5691 132.37 72.4669 132.388 72.4594C132.586 72.3966 132.756 72.2657 132.868 72.0897C132.98 71.9136 133.026 71.7036 132.999 71.4966C132.952 70.9254 132.939 70.3517 132.912 69.7506C131.754 69.4837 130.73 70.0424 129.584 69.9177C129.479 70.9428 129.395 71.8932 130.454 72.5741L128.853 72.856C128.987 72.4045 129.191 71.9904 129.218 71.5639C129.248 71.085 129.122 70.5936 129.049 69.9751C127.779 70.444 126.293 69.6358 125.363 71.2771C125.266 70.3143 125.192 69.556 125.095 68.6082C125.659 69.4288 126.295 69.3814 127.066 69.2293C128.15 69.0147 129.276 69.0123 130.382 68.9025C131.037 68.8557 131.688 68.7632 132.33 68.6256C132.564 68.5683 132.728 68.2291 132.922 68.0195Z" fill="black"/>
<path d="M128.254 51.5996L129.286 54.0715L128.254 53.4504C126.31 54.281 124.349 55.1166 122.396 55.9671C122.261 56.0245 122.179 56.2166 122.08 56.3263C122.328 57.4313 122.624 58.4539 123.887 58.858L122.644 58.9802L120.797 54.5853C121.225 54.7275 121.57 54.9295 121.911 54.9245C122.277 54.8775 122.631 54.7652 122.957 54.5928C124.327 54.034 125.691 53.4479 127.061 52.9091C127.675 52.6622 128.192 52.3803 128.254 51.5996Z" fill="black"/>
<path d="M125.368 46.0074L126.492 48.1275C126.029 48.0876 125.602 47.9579 125.224 48.0427C124.846 48.1275 124.506 48.4368 124.143 48.6339C122.913 49.3048 121.675 49.9633 120.447 50.6293C119.701 51.0359 119.632 51.2703 119.95 52.0086C120.392 53.0413 120.534 53.1635 121.774 53.5626L120.638 53.9716C119.644 52.7594 119.212 51.208 118.252 49.8685C118.799 49.8685 119.264 49.9533 119.681 49.8461C120.099 49.7388 120.487 49.4395 120.884 49.2225C122.075 48.564 123.251 47.8756 124.464 47.262C125.013 46.9826 125.259 46.6284 125.097 45.9824L125.368 46.0074Z" fill="black"/>
<path d="M120.966 98.5249C121.053 99.4453 121.511 99.8169 122.085 100.109C123.517 100.835 124.948 101.558 126.365 102.314C126.917 102.608 127.414 102.735 127.933 102.199C127.745 103.074 127.292 103.775 126.815 104.526C126.847 104.274 126.794 104.019 126.665 103.801C126.537 103.582 126.339 103.413 126.104 103.319C124.341 102.426 122.58 101.532 120.822 100.638C120.758 100.605 120.661 100.638 120.574 100.638C119.47 101.832 119.42 101.989 119.699 103.668L118.705 102.887L119.781 100.8C120.149 100.104 120.507 99.4079 120.966 98.5249Z" fill="black"/>
<path d="M60.252 17.827L62.6356 17.4204C62.3249 17.7946 62.054 17.9866 61.9943 18.2286C61.9347 18.4705 62.0739 18.7823 62.1236 19.0617C62.392 20.6006 62.6555 22.1396 62.9289 23.6786C62.9711 23.928 63.078 24.15 63.1352 24.3895C63.153 24.4823 63.1898 24.5704 63.2433 24.6482C63.2968 24.726 63.3657 24.7918 63.4459 24.8415C63.526 24.8912 63.6155 24.9237 63.7088 24.9369C63.802 24.9501 63.897 24.9438 63.9877 24.9183C64.8701 24.7786 65.827 24.7112 66.1253 23.4516C66.2844 24.1475 66.2844 24.1475 66.0184 24.9482L61.4251 25.8162C61.7408 25.452 62.0092 25.2625 62.0937 25.0105C62.15 24.7275 62.138 24.435 62.0589 24.1575C61.7632 22.5836 61.4152 21.0172 61.1641 19.4358C61.1328 19.1185 61.0354 18.8113 60.8783 18.5342C60.7211 18.2571 60.5078 18.0161 60.252 17.827Z" fill="black"/>
<path d="M72.9185 134.774C72.0262 134.974 71.0817 133.821 71.1239 132.973C71.1662 132.125 71.9839 131.138 73.0055 131.227C73.9848 131.325 74.8174 132.088 74.7926 133.043C74.7694 133.521 74.5598 133.97 74.2091 134.294C73.8584 134.618 73.3948 134.791 72.9185 134.774Z" fill="black"/>
<path d="M132.054 90.5004L131.523 92.7178H131.326C131.271 92.4933 131.219 92.2689 131.132 91.9172C129.852 91.5779 128.518 91.2213 127.18 90.8745C126.658 90.7776 126.142 90.6518 125.634 90.4979C124.971 90.2485 124.392 90.2959 123.696 90.9843C123.944 89.9866 124.126 89.2383 124.367 88.2705C124.635 89.2682 125.341 89.4104 126.01 89.575C127.516 89.9517 129.047 90.246 130.531 90.6975C130.782 90.7877 131.051 90.8169 131.316 90.7827C131.581 90.7484 131.834 90.6517 132.054 90.5004Z" fill="black"/>
<path d="M35.6228 123.468L33.5051 121.694C34.559 121.846 34.9965 121.445 35.4414 120.886C36.4033 119.639 37.4497 118.472 38.4787 117.284C38.8416 116.863 39.0454 116.421 38.7521 115.733C39.5674 116.08 39.9526 116.678 40.4646 117.08C39.9999 117.427 39.5102 117.688 39.1573 118.078C37.9965 119.367 36.8904 120.709 35.7521 122.021C35.3693 122.46 35.2773 122.879 35.9385 123.326L35.6228 123.468Z" fill="black"/>
<path d="M117.961 49.347C117.38 48.4515 116.967 47.8005 116.505 47.1021C117.477 47.2543 117.479 47.2593 118.342 46.6955C119.724 45.7926 121.076 44.8398 122.493 43.9967C123.024 43.6799 123.027 43.2484 123.104 42.5625L124.645 44.8822C123.631 44.4357 123.628 44.4332 122.845 44.9421C121.46 45.8417 120.078 46.7463 118.7 47.6558C117.902 48.1821 117.907 48.1896 117.961 49.347Z" fill="black"/>
<path d="M70.2788 55.7726C69.4784 55.5631 68.7626 55.4185 68.0766 55.1865C66.8736 54.7824 65.6706 54.3634 64.5024 53.8745C64.023 53.6345 63.5803 53.3271 63.1875 52.9616C61.8055 51.8366 62.074 49.6192 63.5628 48.7537C64.1755 48.4184 64.83 48.1668 65.509 48.0054C66.1488 47.8511 66.8025 47.7625 67.4602 47.741C68.3649 47.6986 69.2721 47.741 70.1669 47.741C70.3682 48.6714 70.4453 53.6799 70.2788 55.7726Z" fill="white"/>
<path d="M74.8646 62.0806C75.4089 62.4073 75.8414 62.6318 76.2341 62.9137C77.5937 63.879 77.6608 65.63 76.3534 66.6551C75.9184 66.9968 75.3815 67.2063 74.7875 67.5356C74.524 66.5528 74.621 65.7197 74.6955 64.8792C74.7701 64.0386 74.8148 63.183 74.8646 62.0806Z" fill="white"/>
<path d="M70.5447 77.4179C69.5306 77.151 68.9589 76.5524 68.8719 75.602C68.7675 74.4472 69.63 73.9782 70.5447 73.4844V77.4179Z" fill="white"/>
<path d="M74.7303 86.3851C74.0766 85.537 74.6656 84.7438 74.5712 83.9058C75.8264 84.674 75.8637 85.3175 74.7303 86.3851Z" fill="white"/>
<path d="M90.9486 19.5605C93.6653 19.9097 94.3936 21.1694 94.5402 22.7632C94.5994 23.3597 94.5318 23.962 94.3421 24.5304C94.1523 25.0988 93.8445 25.6204 93.4391 26.0607C92.425 27.1756 90.4043 27.2754 89.2435 26.3425C89.0909 26.2069 88.9892 26.0229 88.9552 25.8212C88.9178 25.5703 88.939 25.3141 89.0174 25.0729C89.6437 23.2571 90.29 21.4512 90.9486 19.5605Z" fill="white"/>
<path d="M23.2348 60.1124L17.2099 57.8451C17.1328 55.498 19.1834 53.7719 21.3458 54.3331C22.2232 54.5601 23.0857 54.832 23.7046 55.5803C24.8554 56.9422 24.7112 58.8328 23.2348 60.1124Z" fill="white"/>
<path d="M19.1958 90.8147C19.1685 90.3159 19.1138 89.8744 19.1238 89.4304C19.1305 89.1942 19.1836 88.9616 19.2799 88.746C19.3763 88.5304 19.5141 88.336 19.6853 88.1738C19.8566 88.0117 20.058 87.885 20.2781 87.801C20.4982 87.717 20.7327 87.6774 20.968 87.6844C21.4248 87.7114 21.8525 87.918 22.1586 88.2592C22.4647 88.6005 22.6246 89.049 22.6035 89.5077C22.5593 89.7354 22.4584 89.9482 22.3102 90.1263C22.2282 90.2189 22.1182 90.282 21.997 90.3059C21.2887 90.4905 20.5778 90.675 19.862 90.8347C19.6399 90.8546 19.4163 90.8479 19.1958 90.8147Z" fill="white"/>
<path d="M15.9448 91.7903C15.4925 90.618 15.8156 89.7724 16.7775 89.4432C17.7394 89.1139 18.408 89.5629 18.8728 90.9672C17.9755 91.4112 16.9689 91.4985 15.9448 91.7903Z" fill="white"/>
<path d="M18.0352 66.4857L15.0078 65.8946C14.978 64.807 15.2166 64.3531 15.9349 64.0488C16.5762 63.7769 17.6176 63.934 17.988 64.4429C18.418 65.0315 18.5945 65.6875 18.0352 66.4857Z" fill="white"/>
<path d="M108.39 121.15L110.378 123.797C109.859 124.465 109.2 124.705 108.437 124.45C108.096 124.355 107.791 124.158 107.563 123.886C107.335 123.614 107.193 123.28 107.157 122.926C107.075 122.086 107.624 121.592 108.39 121.15Z" fill="white"/>
<path d="M42.7887 124.012C42.1077 124.979 41.4813 125.875 40.8574 126.768C39.4755 125.847 39.2766 125.154 40.0173 124.024C40.6163 123.101 41.2601 123.079 42.7887 124.012Z" fill="white"/>
<path d="M47.6082 26.5469C47.1111 25.5193 46.6463 24.5515 46.1641 23.5712C46.7854 23 47.3894 22.8604 48.1078 23.222C48.4259 23.3786 48.6933 23.6224 48.8789 23.9253C49.0646 24.2281 49.1609 24.5776 49.1567 24.9331C49.1691 25.7612 48.4682 26.1902 47.6082 26.5469Z" fill="white"/>
<path d="M88.6718 131.237C88.9527 132.272 89.2161 133.26 89.4871 134.263C88.8806 134.956 88.212 134.704 87.5881 134.393C87.0338 134.113 86.6312 133.023 86.7878 132.432C86.9642 131.774 87.4415 131.449 88.6718 131.237Z" fill="white"/>
<path d="M44.7623 31.341C44.7678 31.8183 44.6585 32.2899 44.4436 32.7157C44.2287 33.1415 43.9145 33.509 43.5278 33.7869C43.141 34.0648 42.6932 34.2449 42.2222 34.312C41.7513 34.379 41.2712 34.331 40.8227 34.172C39.3313 33.6357 37.8027 31.548 37.8027 29.9317C37.8201 29.4548 37.9478 28.9885 38.1756 28.5696C38.4035 28.1507 38.7252 27.7907 39.1155 27.5181C39.5058 27.2455 39.9539 27.0676 40.4245 26.9986C40.895 26.9297 41.3751 26.9714 41.8268 27.1206C42.6247 27.3701 43.1665 27.9412 43.6487 28.5548C44.29 29.378 44.8517 30.256 44.7623 31.341Z" fill="white"/>
<path d="M13.9191 81.5184C13.8172 80.4234 14.5107 79.5429 15.48 79.0516C16.8595 78.3482 18.3459 78.1387 19.867 78.8445C20.993 79.3659 21.4453 80.3411 21.5298 81.4012C21.6144 82.4613 21.1993 83.5438 20.1255 84.1C18.8131 84.781 17.4312 85.0678 15.9722 84.559C14.6026 84.0876 13.9017 83.1073 13.9191 81.5184Z" fill="white"/>
<path d="M26.7122 41.4552C28.4521 41.4926 30.5523 43.1788 30.9823 44.8699C31.2508 45.93 30.4455 47.5563 29.3394 48.0676C28.6285 48.3993 27.9102 48.5665 27.085 48.2597C25.8969 47.8132 24.8654 47.227 24.1347 46.152C23.8027 45.7007 23.6104 45.1614 23.5816 44.6012C23.5529 44.041 23.6891 43.4848 23.9731 43.0017C24.5497 41.9042 25.4943 41.4278 26.7122 41.4552Z" fill="white"/>
<path d="M127.31 65.9291C125.674 66.0064 124.389 65.0212 124.066 63.0257C124.001 62.4012 124.179 61.7755 124.563 61.2797C125.557 59.8281 127.948 59.0897 129.643 59.626C130.856 60.0077 131.438 60.928 131.687 62.0505C131.935 63.1729 131.438 64.1806 130.531 64.874C129.599 65.5651 128.469 65.9352 127.31 65.9291Z" fill="white"/>
<path d="M72.5308 20.7325L73.6468 17.415C74.0494 18.6622 74.38 19.6599 74.7305 20.7325H72.5308Z" fill="white"/>
<path d="M132.611 76.7394L129.313 77.8344V75.6045L132.611 76.7394Z" fill="white"/>
<path d="M27.4603 108.147L28.7801 109.981L25.7478 110.879L25.626 110.694L27.4603 108.147Z" fill="white"/>
<path d="M18.0251 72.1875L17.8337 74.385L14.5776 73.0455L18.0251 72.1875Z" fill="white"/>
<path d="M111.521 35.7208C110.987 35.1721 110.539 34.7231 109.995 34.1594L112.913 32.4458C112.409 33.6356 111.986 34.6283 111.521 35.7208Z" fill="white"/>
<path d="M65.1363 132.033L63.4834 135.101C63.2796 133.854 63.1006 132.786 62.9067 131.609L65.1363 132.033Z" fill="white"/>
<path d="M129.134 96.8111H125.615C125.875 96.0778 126.112 95.4018 126.375 94.666L129.134 96.8111Z" fill="white"/>
<path d="M55.179 20.5703L57.1674 23.1594C56.4715 23.4687 55.855 23.8054 55.097 23.7505C55.0442 23.6319 55.0066 23.507 54.9851 23.3789C54.9851 22.4784 54.9851 21.578 54.9851 20.6751L55.179 20.5703Z" fill="white"/>
</g>
<defs>
<clipPath id="clip0_47_1100">
<rect width="147" height="153" fill="white"/>
</clipPath>
</defs>
</svg>
