<svg width="14" height="10" viewBox="0 0 14 10" fill="none" xmlns="http://www.w3.org/2000/svg">
<path fill-rule="evenodd" clip-rule="evenodd" d="M14 4.99998C14 4.86737 13.9473 4.74019 13.8536 4.64642C13.7598 4.55266 13.6326 4.49998 13.5 4.49998L1.70701 4.49998L4.85401 1.35398C4.94789 1.26009 5.00064 1.13275 5.00064 0.999979C5.00064 0.867203 4.94789 0.739865 4.85401 0.645979C4.76012 0.552092 4.63278 0.499347 4.50001 0.499347C4.36723 0.499347 4.23989 0.552092 4.14601 0.645979L0.146009 4.64598C0.0994453 4.69242 0.0625025 4.7476 0.037296 4.80835C0.0120896 4.86909 -0.000885209 4.93421 -0.000885206 4.99998C-0.000885204 5.06575 0.0120896 5.13087 0.037296 5.19161C0.0625025 5.25236 0.0994454 5.30753 0.146009 5.35398L4.14601 9.35398C4.1925 9.40047 4.24769 9.43734 4.30842 9.4625C4.36916 9.48766 4.43426 9.50061 4.50001 9.50061C4.63278 9.50061 4.76012 9.44787 4.85401 9.35398C4.9479 9.26009 5.00064 9.13275 5.00064 8.99998C5.00064 8.8672 4.9479 8.73987 4.85401 8.64598L1.70701 5.49998L13.5 5.49998C13.6326 5.49998 13.7598 5.4473 13.8536 5.35353C13.9473 5.25976 14 5.13259 14 4.99998Z" fill="#6D6E6F"/>
</svg>
