<svg width="15" height="15" viewBox="0 0 15 15" fill="none" xmlns="http://www.w3.org/2000/svg">
<path d="M14.9992 6.0592L14.8636 1.14339C14.8484 0.593723 14.406 0.1513 13.8563 0.136087L8.94043 0.000415403C8.65327 -0.00761508 8.38159 0.101051 8.17913 0.303507L0.30339 8.17928C-0.100642 8.58331 -0.100642 9.24069 0.30339 9.64473L5.35491 14.6962C5.75985 15.1012 6.41534 15.1013 6.82038 14.6962L14.6962 6.8205C14.8966 6.62004 15.0071 6.34254 14.9992 6.0592ZM12.7484 4.74304C12.0598 5.43163 10.9453 5.4317 10.2566 4.74304C9.56962 4.05605 9.56962 2.93822 10.2566 2.25126C10.9452 1.56263 12.0598 1.5626 12.7484 2.25126C13.4354 2.93822 13.4354 4.05605 12.7484 4.74304Z" fill="#1F559C"/>
</svg>
