<?xml version="1.0" encoding="utf-8"?>
<!-- Generator: Adobe Illustrator 16.0.0, SVG Export Plug-In . SVG Version: 6.00 Build 0)  -->
<!DOCTYPE svg PUBLIC "-//W3C//DTD SVG 1.1//EN" "http://www.w3.org/Graphics/SVG/1.1/DTD/svg11.dtd">
<svg version="1.1" id="Layer_1" xmlns="http://www.w3.org/2000/svg" xmlns:xlink="http://www.w3.org/1999/xlink" x="0px" y="0px"
	 width="40px" height="40px" viewBox="0 0 40 40" enable-background="new 0 0 40 40" xml:space="preserve">
<g>
	<path fill="#FFFFFF" d="M0,20L0,20C0,8.954,8.954,0,20,0l0,0c11.046,0,20,8.954,20,20l0,0c0,11.046-8.954,20-20,20l0,0
		C8.954,40,0,31.046,0,20z"/>
	<path fill="#6D6E6F" d="M25.836,20.016c0.012-0.233-0.063-0.467-0.238-0.642l-10.006-9.117c-0.328-0.325-0.86-0.325-1.189,0
		c-0.328,0.333-0.328,0.858,0,1.183l9.402,8.575l-9.402,8.566c-0.328,0.326-0.328,0.859,0,1.184c0.329,0.325,0.861,0.325,1.189,0
		l10.006-9.116C25.772,20.475,25.848,20.241,25.836,20.016z"/>
</g>
</svg>
