<svg width="20" height="21" viewBox="0 0 20 21" fill="none" xmlns="http://www.w3.org/2000/svg">
<path d="M19.6746 0.825388C19.2408 0.391537 18.5373 0.391537 18.1035 0.825388L9.99997 8.92893L1.89647 0.825388C1.46263 0.391537 0.759228 0.391537 0.325388 0.825388C-0.108463 1.25923 -0.108463 1.96263 0.325388 2.39647L8.4289 10.5L0.32541 18.6034C-0.10844 19.0374 -0.10844 19.7407 0.32541 20.1746C0.75925 20.6085 1.46266 20.6085 1.8965 20.1746L9.99997 12.0711L18.1035 20.1746C18.5373 20.6085 19.2408 20.6085 19.6746 20.1746C20.1084 19.7407 20.1084 19.0374 19.6746 18.6036L11.571 10.5L19.6746 2.39647C20.1084 1.96263 20.1084 1.25923 19.6746 0.825388Z" fill="#6D6E6F"/>
</svg>
