<svg width="20" height="21" viewBox="0 0 20 21" fill="none"
    xmlns="http://www.w3.org/2000/svg">
    <path fill-rule="evenodd" clip-rule="evenodd" d="M8.4125 15.7812C4.48125 15.7812 1.29438 12.65 1.29438 8.78125C1.29438 4.9125 4.48125 1.77502 8.4125 1.77502C12.3437 1.77502 15.5313 4.9125 15.5313 8.78125C15.5313 12.65 12.3437 15.7812 8.4125 15.7812ZM19.805 19.4062L14.6431 14.325C15.9944 12.8562 16.825 10.9187 16.825 8.78125C16.825 4.20625 13.0587 0.5 8.4125 0.5C3.76625 0.5 0 4.20625 0 8.78125C0 13.35 3.76625 17.0562 8.4125 17.0562C10.42 17.0562 12.2613 16.3625 13.7075 15.2063L18.89 20.3062C19.1431 20.5562 19.5525 20.5562 19.805 20.3062C20.0581 20.0625 20.0581 19.6562 19.805 19.4062Z" fill="#6D6E6F"></path>
</svg>