<?xml version="1.0" encoding="utf-8"?>
<!-- Generator: Adobe Illustrator 16.0.0, SVG Export Plug-In . SVG Version: 6.00 Build 0)  -->
<!DOCTYPE svg PUBLIC "-//W3C//DTD SVG 1.1//EN" "http://www.w3.org/Graphics/SVG/1.1/DTD/svg11.dtd">
<svg version="1.1" id="Layer_1" xmlns="http://www.w3.org/2000/svg" xmlns:xlink="http://www.w3.org/1999/xlink" x="0px" y="0px"
	 width="20px" height="20px" viewBox="0 0 20 20" enable-background="new 0 0 20 20" xml:space="preserve">
<path display="none" fill="#00AEEF" d="M19.947,7.659c-0.131-0.405-0.49-0.692-0.914-0.73L13.26,6.404l-2.282-5.343
	C10.809,0.67,10.426,0.417,10,0.417S9.191,0.67,9.022,1.063L6.74,6.404L0.966,6.929c-0.424,0.039-0.782,0.325-0.914,0.73
	s-0.01,0.85,0.311,1.129l4.363,3.827L3.44,18.282C3.346,18.7,3.507,19.13,3.853,19.38c0.186,0.135,0.403,0.203,0.623,0.203
	c0.189,0,0.377-0.051,0.545-0.152L10,16.455l4.978,2.976c0.364,0.22,0.823,0.199,1.169-0.051s0.508-0.682,0.413-1.098l-1.286-5.667
	l4.363-3.826C19.957,8.509,20.08,8.065,19.947,7.659z"/>
<g>
	<path fill="#00AEEF" d="M10,1.417c0.026,0,0.048,0.015,0.058,0.037l2.282,5.343c0.145,0.338,0.463,0.57,0.829,0.604l5.774,0.524
		c0.024,0.002,0.045,0.018,0.054,0.045c0.008,0.025,0.001,0.05-0.02,0.067l-4.363,3.826c-0.276,0.242-0.397,0.615-0.316,0.974
		l1.287,5.667c0.005,0.025-0.004,0.051-0.024,0.065l-0.07,0.003l-4.978-2.976c-0.158-0.095-0.335-0.142-0.513-0.142
		s-0.355,0.047-0.513,0.142l-4.979,2.976c0,0,0,0-0.001,0c-0.01,0-0.055-0.003-0.065-0.003c-0.001,0-0.002,0-0.002,0
		c-0.021-0.015-0.03-0.04-0.024-0.065l1.287-5.667c0.082-0.358-0.04-0.731-0.316-0.974L1.02,8.034
		C1.002,8.018,0.995,7.993,1.003,7.969c0.008-0.025,0.028-0.042,0.053-0.044L6.83,7.4c0.366-0.033,0.685-0.265,0.829-0.603
		l2.282-5.339C9.952,1.432,9.974,1.417,10,1.417 M10,0.417c-0.426,0-0.809,0.253-0.978,0.646L6.74,6.404L0.966,6.929
		c-0.424,0.039-0.782,0.325-0.914,0.73s-0.01,0.85,0.311,1.129l4.363,3.827L3.44,18.282C3.346,18.7,3.507,19.13,3.853,19.38
		c0.186,0.135,0.403,0.203,0.623,0.203c0.189,0,0.377-0.051,0.545-0.152L10,16.455l4.978,2.976c0.168,0.102,0.356,0.151,0.545,0.151
		c0.22,0,0.438-0.067,0.624-0.202c0.346-0.25,0.508-0.682,0.413-1.098l-1.286-5.667l4.363-3.826c0.32-0.28,0.443-0.724,0.311-1.13
		c-0.131-0.405-0.49-0.692-0.914-0.73L13.26,6.404l-2.282-5.343C10.809,0.67,10.426,0.417,10,0.417L10,0.417z"/>
</g>
</svg>
