<?xml version="1.0" encoding="utf-8"?>
<!-- Generator: Adobe Illustrator 16.0.0, SVG Export Plug-In . SVG Version: 6.00 Build 0)  -->
<!DOCTYPE svg PUBLIC "-//W3C//DTD SVG 1.1//EN" "http://www.w3.org/Graphics/SVG/1.1/DTD/svg11.dtd">
<svg version="1.1" id="Layer_1" xmlns="http://www.w3.org/2000/svg" xmlns:xlink="http://www.w3.org/1999/xlink" x="0px" y="0px"
	 width="20px" height="20px" viewBox="0 0 20 20" enable-background="new 0 0 20 20" xml:space="preserve">
<path fill="#00AEEF" d="M10.301,0.42v16.04l-4.98,2.97c-0.17,0.101-0.35,0.15-0.54,0.15c-0.22,0-0.44-0.061-0.63-0.2
	c-0.34-0.25-0.5-0.68-0.41-1.1l1.29-5.66l-4.37-3.83c-0.32-0.28-0.44-0.73-0.31-1.13c0.13-0.41,0.49-0.69,0.92-0.73l5.77-0.53
	L9.32,1.06C9.49,0.67,9.87,0.42,10.301,0.42z"/>
<g>
	<path fill="#00AEEF" d="M10,1.417c0.026,0,0.048,0.015,0.058,0.037l2.282,5.343c0.145,0.338,0.463,0.57,0.829,0.604l5.774,0.524
		c0.023,0.002,0.045,0.018,0.054,0.045c0.008,0.025,0.001,0.05-0.021,0.067l-4.363,3.826c-0.275,0.242-0.396,0.615-0.315,0.974
		l1.287,5.667c0.005,0.025-0.004,0.051-0.024,0.064l-0.069,0.004l-4.978-2.977c-0.159-0.095-0.335-0.142-0.514-0.142
		s-0.355,0.047-0.513,0.142l-4.979,2.977c0,0,0,0-0.001,0c-0.01,0-0.055-0.004-0.065-0.004c-0.001,0-0.002,0-0.002,0
		c-0.021-0.014-0.03-0.039-0.024-0.064l1.287-5.667c0.082-0.358-0.04-0.731-0.316-0.974L1.02,8.034
		C1.002,8.018,0.995,7.993,1.003,7.969c0.008-0.025,0.028-0.042,0.053-0.044L6.83,7.4c0.366-0.033,0.685-0.265,0.829-0.603
		l2.282-5.339C9.952,1.432,9.974,1.417,10,1.417 M10,0.417c-0.426,0-0.809,0.253-0.978,0.646L6.74,6.404L0.966,6.929
		c-0.424,0.039-0.782,0.325-0.914,0.73c-0.132,0.405-0.01,0.85,0.311,1.129l4.363,3.827L3.44,18.282
		C3.346,18.7,3.507,19.13,3.853,19.38c0.186,0.136,0.403,0.203,0.623,0.203c0.189,0,0.377-0.051,0.545-0.151L10,16.455l4.979,2.977
		c0.168,0.102,0.355,0.15,0.545,0.15c0.22,0,0.438-0.066,0.623-0.202c0.347-0.25,0.508-0.682,0.414-1.098l-1.287-5.667l4.363-3.826
		c0.32-0.28,0.443-0.724,0.312-1.13c-0.132-0.405-0.49-0.692-0.914-0.73L13.26,6.404l-2.281-5.343
		C10.809,0.67,10.426,0.417,10,0.417L10,0.417z"/>
</g>
</svg>
