<svg width="15" height="15" viewBox="0 0 15 15" fill="none" xmlns="http://www.w3.org/2000/svg">
<g clip-path="url(#clip0_9648_10628)">
<path d="M7.50001 7.50009C8.53543 7.50009 9.41919 7.13375 10.1515 6.40138C10.8839 5.66901 11.2502 4.78525 11.2502 3.74996C11.2502 2.71484 10.8839 1.83104 10.1515 1.0985C9.41896 0.366167 8.53516 0 7.50001 0C6.46485 0 5.58092 0.366167 4.84859 1.0985C4.11611 1.83104 3.74988 2.7148 3.74988 3.74996C3.74988 4.78525 4.11611 5.66901 4.84859 6.40138C5.58113 7.13375 6.46482 7.50009 7.50001 7.50009Z" fill="#1F559C"/>
<path d="M14.3408 11.46C14.318 11.1313 14.2724 10.7764 14.2041 10.3955C14.1358 10.0146 14.0494 9.66157 13.9452 9.3359C13.841 9.01047 13.701 8.69304 13.5252 8.38376C13.3495 8.07451 13.1477 7.81089 12.9197 7.59269C12.6917 7.37457 12.4134 7.20053 12.0849 7.07035C11.7559 6.9402 11.3929 6.875 10.9958 6.875C10.9373 6.875 10.8005 6.94498 10.5856 7.08499C10.3709 7.22499 10.1284 7.38127 9.85821 7.55387C9.58806 7.72616 9.23629 7.88255 8.80353 8.02231C8.37056 8.16231 7.93605 8.23233 7.49969 8.23233C7.06351 8.23233 6.62896 8.16231 6.19606 8.02231C5.76319 7.88255 5.41153 7.72616 5.14134 7.55387C4.87119 7.38127 4.62871 7.22502 4.4139 7.08499C4.19899 6.94498 4.06234 6.875 4.00374 6.875C3.60662 6.875 3.24363 6.9402 2.91489 7.07035C2.58607 7.20053 2.30778 7.3747 2.07987 7.59269C1.85203 7.81089 1.65018 8.07451 1.47447 8.38376C1.29876 8.69304 1.15879 9.01061 1.0546 9.3359C0.950444 9.66157 0.864144 10.0146 0.795802 10.3955C0.727391 10.7764 0.68183 11.1311 0.659015 11.46C0.636234 11.7889 0.624878 12.1259 0.624878 12.4709C0.624878 13.252 0.86257 13.8691 1.33778 14.3216C1.8131 14.7739 2.44467 15 3.23241 15H11.7678C12.5554 15 13.1869 14.7739 13.6623 14.3216C14.1378 13.8691 14.3753 13.2521 14.3753 12.4709C14.3753 12.1259 14.3639 11.7889 14.3408 11.46Z" fill="#1F559C"/>
</g>
<defs>
<clipPath id="clip0_9648_10628">
<rect width="15" height="15" fill="white"/>
</clipPath>
</defs>
</svg>
